<?xml version="1.0" encoding="utf-8"?>
<!-- Generator: Adobe Illustrator 22.1.0, SVG Export Plug-In . SVG Version: 6.00 Build 0)  -->
<svg version="1.1" id="レイヤー_1" xmlns="http://www.w3.org/2000/svg" xmlns:xlink="http://www.w3.org/1999/xlink" x="0px"
	 y="0px" viewBox="0 0 1032 213" style="enable-background:new 0 0 1032 213;" xml:space="preserve">
<style type="text/css">
	.st0{fill:#FFFFFF;}
	.st1{enable-background:new    ;}
	.st2{fill:#0AB9A7;}
</style>
<path class="st0" d="M910.6,37.5l-1.5,8.6h-31.2l1.5-8.4l19.3-15.1c1.7-1.4,3-2.7,3.8-3.9c0.9-1.2,1.3-2.4,1.3-3.6
	c0-1.4-0.4-2.5-1.3-3.3c-0.8-0.8-2.1-1.3-3.8-1.3s-3.2,0.5-4.4,1.6s-2,2.5-2.6,4.5l-9.1-1.9c1.2-4.1,3.3-7.2,6.3-9.4
	S895.5,2,899.5,2c2.1,0,4,0.3,5.8,0.8s3.3,1.3,4.6,2.4c1.3,1,2.4,2.3,3.1,3.8c0.8,1.5,1.2,3.1,1.2,5c0,1.8-0.3,3.4-0.8,4.7
	s-1.3,2.6-2.2,3.8c-0.9,1.2-1.9,2.3-3.2,3.3c-1.2,1-2.5,2.1-3.9,3.1l-10.9,8.5L910.6,37.5z"/>
<path class="st0" d="M939.1,2.2c2.6,0,4.8,0.4,6.7,1.3c1.9,0.8,3.4,2,4.5,3.4c1.2,1.4,2,3.1,2.5,5s0.8,3.8,0.8,5.8s-0.2,4.2-0.5,6.4
	c-0.3,2.3-0.7,4.5-1.4,6.7c-0.6,2.2-1.5,4.3-2.5,6.3s-2.3,3.7-3.8,5.3c-1.5,1.5-3.3,2.7-5.3,3.6c-2,0.9-4.2,1.3-6.7,1.3
	c-2.7,0-4.9-0.4-6.8-1.3c-1.8-0.8-3.3-2-4.5-3.3c-1.2-1.4-2-3-2.5-4.8c-0.5-1.9-0.8-3.8-0.8-5.8c0-2.1,0.1-4.2,0.4-6.5
	c0.3-2.3,0.8-4.5,1.5-6.7s1.6-4.3,2.6-6.3c1.1-2,2.4-3.8,3.9-5.3s3.2-2.7,5.2-3.6C934.4,2.6,936.6,2.2,939.1,2.2L939.1,2.2z
	 M938.3,10.4c-1.5,0-2.8,0.6-4,1.8s-2.2,2.8-3,4.7s-1.5,4-2,6.4c-0.4,2.4-0.7,4.7-0.7,7.1c0,1.2,0.1,2.3,0.2,3.3
	c0.2,1,0.5,1.9,0.9,2.7c0.4,0.7,1,1.3,1.6,1.8c0.7,0.4,1.5,0.7,2.4,0.7c1.4,0,2.7-0.6,3.9-1.8s2.2-2.8,3-4.7c0.8-1.9,1.5-4,1.9-6.4
	c0.5-2.4,0.7-4.8,0.7-7.2c0-1.1-0.1-2.2-0.3-3.2s-0.4-1.9-0.8-2.7c-0.4-0.8-0.9-1.4-1.5-1.8S939.3,10.4,938.3,10.4z"/>
<path class="st0" d="M968.8,46.1l5.6-31.8l-9.1,5.9l-3.7-7.5L977,3.3h9.3l-7.6,42.9h-9.9V46.1z"/>
<path class="st0" d="M1032,15.9c0,2.3-0.5,4.5-1.5,6.8s-2.7,4.8-5,7.5L1012,46.1h-12.5l13.3-14.9l0.4-0.5c-0.3,0.1-0.6,0.2-1.1,0.2
	c-0.4,0-0.8,0.1-1.1,0.1c-2.1,0-3.9-0.3-5.5-1s-2.9-1.6-4-2.7c-1-1.1-1.9-2.4-2.4-3.9c-0.6-1.5-0.8-3-0.8-4.6c0-2.2,0.4-4.3,1.2-6.4
	s2-3.8,3.5-5.3s3.4-2.7,5.7-3.6s4.8-1.4,7.7-1.4c2.2,0,4.2,0.3,6.1,0.9s3.5,1.4,5,2.6c1.4,1.1,2.5,2.6,3.3,4.3
	C1031.6,11.7,1032,13.6,1032,15.9L1032,15.9z M1022.1,16.2c0-0.9-0.2-1.8-0.5-2.5s-0.8-1.4-1.3-1.9c-0.6-0.5-1.2-0.9-2-1.2
	c-0.7-0.3-1.5-0.4-2.3-0.4c-2.4,0-4.3,0.7-5.6,2.2s-2,3.4-2,5.8c0,1,0.2,1.8,0.5,2.5c0.4,0.7,0.8,1.4,1.3,1.9
	c0.6,0.5,1.2,0.9,1.9,1.2c0.7,0.2,1.5,0.4,2.2,0.4c1.2,0,2.3-0.2,3.3-0.6s1.9-1,2.5-1.7c0.7-0.7,1.2-1.6,1.6-2.5
	S1022.1,17.3,1022.1,16.2z"/>
<g>
	<g class="st1">
		<path class="st2" d="M685.8,5.6h21.8l-1.6,7.3h-12.7l-1.8,8.9h11.9l-1.6,7.4h-12l-3.6,17h-9L685.8,5.6z"/>
		<path class="st2" d="M728,36.2c-1.1,5.2-1.8,8.5-1.9,9.9h-8.8c0.1-1,0.2-2.1,0.4-2.9c-2.1,2.7-4.2,3.4-7.3,3.4
			c-4.4,0-7.4-3.1-6-9.7l4.7-22.3h8.9l-4.5,20.9c-0.5,2.5-0.3,4.1,1.9,4.1c2,0,3.2-1.5,4-5.2l4.2-19.9h9L728,36.2z"/>
		<path class="st2" d="M744.1,27.2c2.4-3.6,5.7-8.7,8.5-12.6h9.8c-3.1,4.1-6.5,8.2-9.6,12l3.4,19.5H747l-1.6-12.7
			c-1,1.2-2.6,3-3.3,3.9l-1.8,8.8h-8.9l9-42.4h8.9L744.1,27.2z"/>
		<path class="st2" d="M783.4,36.2c-1.1,5.2-1.8,8.5-1.9,9.9h-8.8c0.1-1,0.2-2.1,0.4-2.9c-2.1,2.7-4.2,3.4-7.3,3.4
			c-4.4,0-7.4-3.1-6-9.7l4.7-22.3h8.9L769,35.5c-0.5,2.5-0.3,4.1,1.9,4.1c2,0,3.2-1.5,4-5.2l4.2-19.9h9L783.4,36.2z"/>
		<path class="st2" d="M813.6,30.9c-2,9.6-5.9,15.7-14.8,15.7c-8.5,0-12-5.4-9.6-16.9c2.2-10.5,7.4-15.6,14.6-15.6
			C813,14.1,815.7,20.7,813.6,30.9z M798.1,30.6c-1.4,7.2-0.8,9.2,1.6,9.2c2.2,0,3.7-2.8,5.1-9.4c1.4-6.4,1.6-9.5-1.5-9.5
			C800.7,20.9,799.2,25,798.1,30.6z"/>
		<path class="st2" d="M827.5,27.2c2.4-3.6,5.7-8.7,8.5-12.6h9.8c-3.1,4.1-6.5,8.2-9.6,12l3.4,19.5h-9.2l-1.6-12.7
			c-1,1.2-2.6,3-3.3,3.9l-1.8,8.8h-8.9l9-42.4h8.9L827.5,27.2z"/>
		<path class="st2" d="M865.6,37.8c-0.6,2.9-1.4,6.6-1.6,8.3h-8.6c0-0.6,0.2-1.8,0.3-2.6c-1.8,2.1-3.7,3.1-6.8,3.1
			c-5.9,0-7.6-5-6.5-10.4c1.3-6.3,5.3-8.2,11.5-9.3c1.7-0.3,3.5-0.5,5.3-0.6l0.5-2.4c0.4-2.1,0.3-3.8-2-3.8c-1.8,0-2.5,1.3-3,3.5
			h-8.4c1.3-5.7,4.4-9.4,12.2-9.4c8,0,11.4,3.7,9.9,10.8L865.6,37.8z M858.1,32c-1.1,0.1-2.1,0.2-3,0.5c-2,0.6-3.3,1.6-3.8,3.7
			c-0.5,2.2,0.1,3.6,2.1,3.6c2.3,0,3.6-1.9,4.2-5.3L858.1,32z"/>
	</g>
</g>
<g>
	<path class="st0" d="M15.7,173.3H0L34.5,67.2H50L15.7,173.3z"/>
	<path class="st0" d="M71.9,146.8c3.7,0,6.5-0.2,8.6-0.8c2-0.6,2.9-1.6,2.9-3.3c0-1-0.4-2-1-2.7c-0.6-0.8-1.4-1.4-2.7-1.8
		c-1-0.6-2.4-1-3.9-1.6c-1.4-0.4-2.9-1-4.5-1.4c-2.2-0.6-4.5-1.4-6.7-2.2c-2.2-0.8-4.3-2-6.3-3.3c-1.8-1.2-3.5-3.1-4.7-4.9
		c-1.2-2-1.8-4.5-1.8-7.6c0-2.4,0.4-4.7,1.4-6.9c1-2.2,2.4-4.1,4.5-5.7c2-1.6,4.5-3.1,7.8-3.9c3.1-1,6.9-1.4,11.2-1.4
		c3.7,0,7.3,0.2,10.4,0.8c3.3,0.6,6.1,1.4,8.4,2.4l-2.2,12.9c-1.4-0.4-3.5-1-6.5-2c-2.9-1-6.3-1.4-10-1.4c-3.9,0-6.5,0.4-7.8,1.4
		c-1.4,1-2,2-2,3.1c0,0.8,0.4,1.6,1,2.4c0.6,0.6,1.4,1.4,2.4,1.8c1,0.6,2.2,1.2,3.5,1.6c1.4,0.6,2.9,1,4.3,1.6
		c2.2,0.8,4.5,1.6,6.9,2.4s4.5,2,6.5,3.5c1.8,1.4,3.5,3.1,4.7,5.1s1.8,4.7,1.8,7.8c0,2.4-0.4,4.7-1.4,6.7c-0.8,2-2.4,3.9-4.5,5.5
		c-2,1.6-4.9,2.9-8.2,3.7c-3.3,0.8-7.6,1.4-12.5,1.4s-9.2-0.6-12.9-1.6c-3.5-1.2-6.3-2.2-8.6-3.1l2.2-12.7c2.9,1.2,5.9,2.2,9.2,3.3
		C65.3,146.4,68.6,146.8,71.9,146.8L71.9,146.8z"/>
	<path class="st0" d="M106.1,129.8c0-5.1,0.8-9.6,2.2-13.5c1.6-3.9,3.7-7.1,6.1-9.6c2.4-2.7,5.5-4.5,8.8-5.9c3.3-1.2,6.7-2,10-2
		c8.6,0,14.9,2.4,19.4,7.6c4.5,5.1,6.7,12.5,6.7,22v3.1c0,1-0.2,1.8-0.2,2.7h-37.6c0,3.7,1.6,6.7,4.7,9c3.1,2.2,7.1,3.3,12,3.3
		c3.1,0,5.9-0.4,8.6-1c2.7-0.6,5.1-1.2,6.9-2l2,12.9c-2.7,0.8-5.3,1.6-8.4,2.2c-2.9,0.6-6.3,1-10,1c-4.9,0-9.4-0.6-13.3-1.8
		s-7.1-3.1-10-5.7c-2.7-2.4-4.9-5.5-6.3-9.2C106.8,139,106.1,134.7,106.1,129.8L106.1,129.8z M144.7,123.9c0-1.6-0.2-3.1-0.6-4.5
		c-0.4-1.4-1-2.7-2-3.9c-0.8-1.2-2-2-3.5-2.9c-1.4-0.6-3.1-1-5.1-1s-3.7,0.4-5.1,1c-1.4,0.6-2.7,1.6-3.5,2.7c-1,1.2-1.6,2.4-2.2,3.9
		s-0.8,3.1-1,4.5h23.1L144.7,123.9z"/>
	<path class="st0" d="M214.1,115.8c-1-0.2-2.2-0.4-3.5-0.8c-1.4-0.2-2.7-0.4-4.1-0.6s-2.7-0.4-4.1-0.4c-1.2,0-2.4-0.2-3.3-0.2
		c-2,0-4.3,0.2-6.3,0.4s-4.1,0.6-6.3,1.2v42.9h-15.3v-53.9c4.1-1.4,8.2-2.7,12.2-3.5c4.3-0.8,9.2-1.4,14.9-1.4c0.8,0,2,0,3.5,0.2
		c1.4,0,3.1,0.2,4.9,0.4c1.6,0.2,3.5,0.4,5.3,0.8c1.8,0.2,3.3,0.6,4.7,1.2L214.1,115.8z"/>
	<path class="st0" d="M245.2,158.2c-3.7-7.3-7.3-15.9-11.2-25.7s-7.3-20.4-10.8-32H239c0.8,3.1,1.6,6.5,2.7,10c1,3.5,2,7.1,3.3,10.6
		c1.2,3.5,2.2,6.9,3.5,10.4c1.2,3.3,2.2,6.5,3.5,9.2c1-2.9,2.2-5.9,3.5-9.2c1.2-3.3,2.7-6.7,3.9-10.4c1.2-3.5,2.4-7.1,3.7-10.6
		s2.2-6.9,2.9-10h15.3c-3.5,11.6-7.3,22.2-11.4,32s-8.2,18.4-11.8,25.7H245.2z"/>
	<path class="st0" d="M283.1,129.8c0-5.1,0.8-9.6,2.2-13.5c1.6-3.9,3.7-7.1,6.1-9.6c2.5-2.7,5.5-4.5,8.8-5.9c3.3-1.2,6.7-2,10-2
		c8.6,0,14.9,2.4,19.4,7.6c4.5,5.1,6.7,12.5,6.7,22v3.1c0,1-0.2,1.8-0.2,2.7h-37.6c0,3.7,1.6,6.7,4.7,9c3.1,2.2,7.1,3.3,12,3.3
		c3.1,0,5.9-0.4,8.6-1s5.1-1.2,6.9-2l2,12.9c-2.7,0.8-5.3,1.6-8.4,2.2c-2.9,0.6-6.3,1-10,1c-4.9,0-9.4-0.6-13.3-1.8s-7.1-3.1-10-5.7
		c-2.7-2.4-4.9-5.5-6.3-9.2C283.9,139,283.1,134.7,283.1,129.8L283.1,129.8z M321.9,123.9c0-1.6-0.2-3.1-0.6-4.5s-1-2.7-2-3.9
		c-0.8-1.2-2-2-3.5-2.9c-1.4-0.6-3.1-1-5.1-1s-3.7,0.4-5.1,1s-2.7,1.6-3.5,2.7c-1,1.2-1.6,2.4-2.2,3.9c-0.6,1.4-0.8,3.1-1,4.5H322
		L321.9,123.9z"/>
	<path class="st0" d="M391.1,115.8c-1-0.2-2.2-0.4-3.5-0.8c-1.4-0.2-2.7-0.4-4.1-0.6s-2.7-0.4-4.1-0.4c-1.2,0-2.4-0.2-3.3-0.2
		c-2,0-4.3,0.2-6.3,0.4c-2,0.2-4.1,0.6-6.3,1.2v42.9h-15.3v-53.9c4.1-1.4,8.2-2.7,12.2-3.5c4.3-0.8,9.2-1.4,14.9-1.4
		c0.8,0,2,0,3.5,0.2c1.4,0,3.1,0.2,4.9,0.4c1.6,0.2,3.5,0.4,5.3,0.8c1.8,0.2,3.3,0.6,4.7,1.2L391.1,115.8z"/>
	<path class="st0" d="M446,155.8c-0.2,0.2-0.8,0.4-1.6,0.8c-0.8,0.4-2,0.8-3.5,1.2c-1.4,0.4-3.1,0.8-5.1,1.2s-4.3,0.4-6.7,0.4
		c-6.9,0-12-2-15.3-6.1s-4.7-10.2-4.7-18.2v-49h-15.9V73.7h31v62.7c0,3.9,0.8,6.5,2.2,8c1.6,1.4,3.5,2,5.9,2c3.1,0,5.5-0.4,7.6-1.2
		c2-0.8,3.5-1.4,4.1-1.6L446,155.8z"/>
	<path class="st0" d="M450.7,129.8c0-5.1,0.8-9.6,2.2-13.5c1.6-3.9,3.7-7.1,6.1-9.6c2.5-2.7,5.5-4.5,8.8-5.9c3.3-1.2,6.7-2,10-2
		c8.6,0,14.9,2.4,19.4,7.6c4.5,5.1,6.7,12.5,6.7,22v3.1c0,1-0.2,1.8-0.2,2.7h-37.6c0,3.7,1.6,6.7,4.7,9c3.1,2.2,7.1,3.3,12,3.3
		c3.1,0,5.9-0.4,8.6-1s5.1-1.2,6.9-2l2,12.9c-2.7,0.8-5.3,1.6-8.4,2.2c-2.9,0.6-6.3,1-10,1c-4.9,0-9.4-0.6-13.3-1.8s-7.1-3.1-10-5.7
		c-2.7-2.4-4.9-5.5-6.3-9.2C451.5,139,450.7,134.7,450.7,129.8L450.7,129.8z M489.5,123.9c0-1.6-0.2-3.1-0.6-4.5s-1-2.7-2-3.9
		c-0.8-1.2-2-2-3.5-2.9c-1.4-0.6-3.1-1-5.1-1s-3.7,0.4-5.1,1s-2.7,1.6-3.5,2.7c-1,1.2-1.6,2.4-2.2,3.9c-0.6,1.4-0.8,3.1-1,4.5h23.1
		L489.5,123.9z"/>
	<path class="st0" d="M533.4,146.8c3.7,0,6.5-0.2,8.6-0.8c2-0.6,2.9-1.6,2.9-3.3c0-1-0.4-2-1-2.7c-0.6-0.8-1.4-1.4-2.7-1.8
		c-1-0.6-2.4-1-3.9-1.6c-1.4-0.4-2.9-1-4.5-1.4c-2.2-0.6-4.5-1.4-6.7-2.2s-4.3-2-6.3-3.3c-1.8-1.2-3.5-3.1-4.7-4.9
		c-1.2-2-1.8-4.5-1.8-7.6c0-2.4,0.4-4.7,1.4-6.9s2.5-4.1,4.5-5.7s4.5-3.1,7.8-3.9c3.1-1,6.9-1.4,11.2-1.4c3.7,0,7.3,0.2,10.4,0.8
		c3.3,0.6,6.1,1.4,8.4,2.4l-2.2,12.9c-1.4-0.4-3.5-1-6.5-2c-2.9-1-6.3-1.4-10-1.4c-3.9,0-6.5,0.4-7.8,1.4c-1.4,1-2,2-2,3.1
		c0,0.8,0.4,1.6,1,2.4c0.6,0.6,1.4,1.4,2.4,1.8c1,0.6,2.2,1.2,3.5,1.6c1.4,0.6,2.9,1,4.3,1.6c2.2,0.8,4.5,1.6,6.9,2.4
		c2.5,0.8,4.5,2,6.5,3.5c1.8,1.4,3.5,3.1,4.7,5.1s1.8,4.7,1.8,7.8c0,2.4-0.4,4.7-1.4,6.7c-0.8,2-2.4,3.9-4.5,5.5
		c-2,1.6-4.9,2.9-8.2,3.7s-7.6,1.4-12.5,1.4s-9.2-0.6-12.9-1.6c-3.5-1.2-6.3-2.2-8.6-3.1l2.2-12.7c2.9,1.2,5.9,2.2,9.2,3.3
		C526.8,146.4,530.1,146.8,533.4,146.8L533.4,146.8z"/>
	<path class="st0" d="M589.9,146.8c3.7,0,6.5-0.2,8.6-0.8c2-0.6,2.9-1.6,2.9-3.3c0-1-0.4-2-1-2.7c-0.6-0.8-1.4-1.4-2.7-1.8
		c-1-0.6-2.4-1-3.9-1.6c-1.4-0.4-2.9-1-4.5-1.4c-2.2-0.6-4.5-1.4-6.7-2.2s-4.3-2-6.3-3.3c-1.8-1.2-3.5-3.1-4.7-4.9
		c-1.2-2-1.8-4.5-1.8-7.6c0-2.4,0.4-4.7,1.4-6.9s2.5-4.1,4.5-5.7s4.5-3.1,7.8-3.9c3.1-1,6.9-1.4,11.2-1.4c3.7,0,7.3,0.2,10.4,0.8
		c3.3,0.6,6.1,1.4,8.4,2.4l-2.2,12.9c-1.4-0.4-3.5-1-6.5-2c-2.9-1-6.3-1.4-10-1.4c-3.9,0-6.5,0.4-7.8,1.4c-1.4,1-2,2-2,3.1
		c0,0.8,0.4,1.6,1,2.4c0.6,0.6,1.4,1.4,2.4,1.8c1,0.6,2.2,1.2,3.5,1.6c1.4,0.6,2.9,1,4.3,1.6c2.2,0.8,4.5,1.6,6.9,2.4
		c2.5,0.8,4.5,2,6.5,3.5c1.8,1.4,3.5,3.1,4.7,5.1s1.8,4.7,1.8,7.8c0,2.4-0.4,4.7-1.4,6.7c-0.8,2-2.4,3.9-4.5,5.5
		c-2,1.6-4.9,2.9-8.2,3.7s-7.6,1.4-12.5,1.4s-9.2-0.6-12.9-1.6c-3.5-1.2-6.3-2.2-8.6-3.1l2.2-12.7c2.9,1.2,5.9,2.2,9.2,3.3
		C583.2,146.4,586.4,146.8,589.9,146.8L589.9,146.8z"/>
	<path class="st0" d="M636.7,173.3H621l34.5-106.1H671L636.7,173.3z"/>
	<path class="st0" d="M748.9,99.8h-12.2v42.3h12.2c13.3,0,21.2-9.6,21.2-21C770,109,762.8,99.8,748.9,99.8z"/>
	<path class="st0" d="M808.5,130.5h22.3l-11-30.8L808.5,130.5z"/>
	<path class="st0" d="M694.8,65.7l-31.2,108.4h326.6l31.2-108.4L694.8,65.7z M748.9,154.5h-26.5V87.2h26.5
		c21.2,0,35.7,13.5,35.7,33.9C784.6,141.3,770,154.5,748.9,154.5z M838.9,154.5l-4.3-11.6h-30.2l-4.3,11.6h-15.7L810.6,87h18
		l25.9,67.6h-15.6V154.5z M886.1,154.5h-14.3V127l-25.9-39.8h16.3l16.7,27.1l16.5-27.1h16.3L886.1,127V154.5z M939.2,155.8
		c-12.9,0-22.2-4.3-28.6-10.8l8-11c4.7,4.9,12,9.2,21.4,9.2c8,0,11.8-3.7,11.8-7.6c0-5.1-5.9-6.7-13.7-8.6
		c-11-2.4-25.1-5.5-25.1-20.6c0-11.2,9.8-20.4,25.5-20.4c10.8,0,19.6,3.3,26.3,9.4l-8,10.6c-5.5-5.1-12.7-7.3-19.4-7.3
		c-6.5,0-10,2.9-10,6.9c0,4.5,5.7,5.9,13.5,7.8c11.2,2.4,25.3,5.9,25.3,20.8C966.3,146.6,957.5,155.8,939.2,155.8L939.2,155.8z"/>
</g>
<path class="st2" d="M599.9,177.8h-25.3c-2,0-3.7-1.6-3.7-3.7c0-2,1.6-3.7,3.7-3.7h25.3c2,0,3.7,1.6,3.7,3.7
	C603.6,176.2,602,177.8,599.9,177.8z M553,177.8h-25.3c-2,0-3.7-1.6-3.7-3.7c0-2,1.6-3.7,3.7-3.7H553c2,0,3.7,1.6,3.7,3.7
	C556.6,176.2,555,177.8,553,177.8z M506,177.8h-25.3c-2,0-3.7-1.6-3.7-3.7c0-2,1.6-3.7,3.7-3.7H506c2,0,3.7,1.6,3.7,3.7
	S507.9,177.8,506,177.8z M459.1,177.8h-25.3c-2,0-3.7-1.6-3.7-3.7c0-2,1.6-3.7,3.7-3.7h25.3c2,0,3.7,1.6,3.7,3.7
	C462.7,176.2,460.9,177.8,459.1,177.8z M411.9,177.8h-25.3c-2,0-3.7-1.6-3.7-3.7c0-2,1.6-3.7,3.7-3.7h25.3c2,0,3.7,1.6,3.7,3.7
	S414,177.8,411.9,177.8z M365,177.8h-25.3c-2,0-3.7-1.6-3.7-3.7c0-2,1.6-3.7,3.7-3.7H365c2,0,3.7,1.6,3.7,3.7
	C368.6,176.2,367,177.8,365,177.8z M318,177.8h-25.3c-2,0-3.7-1.6-3.7-3.7c0-2,1.6-3.7,3.7-3.7H318c2,0,3.7,1.6,3.7,3.7
	S320.1,177.8,318,177.8z M271.1,177.8h-25.3c-2,0-3.7-1.6-3.7-3.7c0-2,1.6-3.7,3.7-3.7h25.3c2,0,3.7,1.6,3.7,3.7
	C274.7,176.2,273.1,177.8,271.1,177.8z M224.1,177.8h-25.3c-2,0-3.7-1.6-3.7-3.7c0-2,1.6-3.7,3.7-3.7h25.3c2,0,3.7,1.6,3.7,3.7
	S226,177.8,224.1,177.8z M177,177.8h-25.1c-2,0-3.7-1.6-3.7-3.7c0-2,1.6-3.7,3.7-3.7h25.3c2,0,3.7,1.6,3.7,3.7S179,177.8,177,177.8
	L177,177.8z M130,177.8h-25.3c-2,0-3.7-1.6-3.7-3.7c0-2,1.6-3.7,3.7-3.7H130c2,0,3.7,1.6,3.7,3.7S132.1,177.8,130,177.8z
	 M83.1,177.8H57.8c-2,0-3.7-1.6-3.7-3.7c0-2,1.6-3.7,3.7-3.7h25.3c2,0,3.7,1.6,3.7,3.7C86.8,176.2,85.1,177.8,83.1,177.8z"/>
<g class="st1">
	<path class="st0" d="M765.7,190.9l0.9-4.5c4.3-1.9,7.7-4.1,10.1-6.6h3.1l-5.4,25.9h-5.1l3.7-17.9c-1.1,0.7-2.3,1.3-3.6,1.9
		S766.8,190.6,765.7,190.9z"/>
	<path class="st0" d="M792.5,200.4h-10.1l0.9-4.2l13.9-16.3h4.4l-3.4,16.2h3.1l-0.9,4.3h-3.1l-1.1,5.3h-4.7L792.5,200.4z
		 M793.4,196.1l1.7-8l-6.8,8H793.4z"/>
	<path class="st0" d="M813,205.7l5.4-25.8h6.9c1.9,0,3.2,0,3.7,0.1c1.1,0.1,2,0.3,2.9,0.7s1.6,0.8,2.3,1.4s1.3,1.3,1.8,2.1
		s0.9,1.8,1.2,2.9s0.4,2.3,0.4,3.6c0,2.8-0.5,5.2-1.6,7.4s-2.4,3.9-4,5.1c-1.2,1-2.8,1.7-4.8,2.2c-1.1,0.3-2.8,0.4-5.1,0.4H813z
		 M819.2,201.5h2.7c1.9,0,3.4-0.1,4.2-0.4s1.7-0.7,2.4-1.3c1-0.9,1.9-2.2,2.6-3.8s1.1-3.4,1.1-5.6c0-1.8-0.3-3.2-0.9-4.1
		s-1.3-1.5-2.2-1.8c-0.6-0.2-1.7-0.3-3.3-0.3h-3.1L819.2,201.5z"/>
	<path class="st0" d="M857.1,197.9h-12.7c0,0.2,0,0.4,0,0.5c0,1.2,0.4,2.2,1.1,3s1.6,1.1,2.6,1.1c1.7,0,3-0.9,3.9-2.6l4.5,0.8
		c-0.9,1.8-2.1,3.2-3.5,4.1s-3.1,1.4-4.9,1.4c-2.5,0-4.5-0.8-6.1-2.4s-2.4-3.7-2.4-6.3c0-2.6,0.7-4.8,2.1-6.8c1.9-2.7,4.7-4,8.3-4
		c2.3,0,4.1,0.7,5.4,2.1s2,3.4,2,5.9C857.4,195.8,857.3,196.9,857.1,197.9z M852.8,194.8c0-0.2,0-0.4,0-0.5c0-1.4-0.3-2.4-0.9-3.1
		s-1.5-1-2.5-1s-2,0.4-2.8,1.2s-1.4,1.9-1.7,3.5H852.8z"/>
	<path class="st0" d="M871.6,198.6l4.9,0.8c-0.8,2.2-2,3.8-3.6,5s-3.4,1.7-5.5,1.7c-2.4,0-4.3-0.7-5.7-2.1s-2.1-3.4-2.1-5.9
		c0-2,0.4-3.9,1.3-5.7s2.1-3.2,3.8-4.3s3.6-1.6,5.6-1.6c2.2,0,4,0.6,5.3,1.7s2.1,2.7,2.2,4.5l-4.8,0.5c-0.1-1-0.4-1.8-1-2.3
		s-1.2-0.7-2-0.7c-1,0-1.9,0.4-2.7,1.1s-1.5,1.8-1.9,3.3s-0.7,2.8-0.7,4.1c0,1.1,0.3,2,0.8,2.5s1.2,0.9,2,0.9s1.6-0.3,2.3-0.9
		S871.1,199.8,871.6,198.6z"/>
	<path class="st0" d="M897.1,197.9h-12.7c0,0.2,0,0.4,0,0.5c0,1.2,0.4,2.2,1.1,3s1.6,1.1,2.6,1.1c1.7,0,3-0.9,3.9-2.6l4.5,0.8
		c-0.9,1.8-2.1,3.2-3.5,4.1s-3.1,1.4-4.9,1.4c-2.5,0-4.5-0.8-6.1-2.4s-2.4-3.7-2.4-6.3c0-2.6,0.7-4.8,2.1-6.8c1.9-2.7,4.7-4,8.3-4
		c2.3,0,4.1,0.7,5.4,2.1s2,3.4,2,5.9C897.5,195.8,897.3,196.9,897.1,197.9z M892.8,194.8c0-0.2,0-0.4,0-0.5c0-1.4-0.3-2.4-0.9-3.1
		s-1.5-1-2.5-1s-2,0.4-2.8,1.2s-1.4,1.9-1.7,3.5H892.8z"/>
	<path class="st0" d="M902.7,187h4.7l-0.5,2.3c1.9-1.8,3.8-2.7,5.8-2.7c1.4,0,2.5,0.3,3.3,0.9s1.2,1.4,1.5,2.4
		c0.6-0.9,1.6-1.7,2.8-2.4s2.5-0.9,3.8-0.9c1.5,0,2.6,0.4,3.5,1.2s1.2,1.9,1.2,3.2c0,0.6-0.2,1.8-0.5,3.3l-2.4,11.4h-5l2.4-11.4
		c0.3-1.4,0.4-2.2,0.4-2.4c0-0.5-0.2-0.9-0.5-1.2s-0.8-0.4-1.4-0.4c-1.3,0-2.4,0.7-3.4,2c-0.7,0.9-1.3,2.6-1.8,5l-1.8,8.5h-5
		l2.4-11.3c0.3-1.3,0.4-2.1,0.4-2.5c0-0.5-0.2-0.9-0.5-1.2s-0.8-0.5-1.4-0.5c-0.6,0-1.1,0.2-1.7,0.5s-1.1,0.8-1.5,1.4
		s-0.8,1.3-1.1,2.2c-0.1,0.4-0.4,1.4-0.7,2.9l-1.8,8.6h-5L902.7,187z"/>
	<path class="st0" d="M930.8,205.7l5.4-25.8h5.1l-1.8,8.6c0.9-0.7,1.8-1.2,2.6-1.5s1.7-0.4,2.6-0.4c2,0,3.5,0.7,4.7,2
		s1.8,3.2,1.8,5.8c0,1.7-0.3,3.3-0.8,4.9s-1.3,2.9-2.2,3.9s-1.9,1.7-2.9,2.2s-2.1,0.7-3.2,0.7c-2.7,0-4.6-1.2-5.9-3.5l-0.7,3.1
		H930.8z M937.6,198c0,1.3,0.4,2.3,1.1,3.1s1.5,1.2,2.5,1.2c0.8,0,1.6-0.3,2.4-0.9s1.4-1.6,1.9-2.9s0.8-2.7,0.8-4
		c0-1.3-0.3-2.4-1-3.1s-1.5-1.1-2.5-1.1c-1.3,0-2.4,0.6-3.3,1.8C938.2,193.5,937.6,195.6,937.6,198z"/>
	<path class="st0" d="M971.1,197.9h-12.7c0,0.2,0,0.4,0,0.5c0,1.2,0.4,2.2,1.1,3s1.6,1.1,2.6,1.1c1.7,0,3-0.9,3.9-2.6l4.5,0.8
		c-0.9,1.8-2.1,3.2-3.5,4.1s-3.1,1.4-4.9,1.4c-2.5,0-4.5-0.8-6.1-2.4s-2.4-3.7-2.4-6.3c0-2.6,0.7-4.8,2.1-6.8c1.9-2.7,4.7-4,8.3-4
		c2.3,0,4.1,0.7,5.4,2.1s2,3.4,2,5.9C971.5,195.8,971.4,196.9,971.1,197.9z M966.9,194.8c0-0.2,0-0.4,0-0.5c0-1.4-0.3-2.4-0.9-3.1
		s-1.5-1-2.5-1s-2,0.4-2.8,1.2s-1.4,1.9-1.7,3.5H966.9z"/>
	<path class="st0" d="M976.6,187h4.7l-0.8,3.6c1.8-2.7,3.7-4.1,5.7-4.1c0.7,0,1.5,0.2,2.3,0.5l-1.9,4.1c-0.5-0.2-0.9-0.2-1.5-0.2
		c-0.9,0-1.7,0.3-2.6,1s-1.6,1.5-2.1,2.6s-1,2.8-1.5,5.2l-1.2,5.9h-5L976.6,187z"/>
</g>
<text transform="matrix(1 0 0 1 -377 -265.7953)" style="font-family:'KozGoPr6N-Regular-90ms-RKSJ-H'; font-size:12px;">山路を登りながら</text>
</svg>
