<?xml version="1.0" encoding="utf-8"?>
<!-- Generator: Adobe Illustrator 24.0.0, SVG Export Plug-In . SVG Version: 6.00 Build 0)  -->
<svg version="1.1" xmlns="http://www.w3.org/2000/svg" xmlns:xlink="http://www.w3.org/1999/xlink" x="0px" y="0px"
	 viewBox="0 0 583.98 668.43" style="enable-background:new 0 0 583.98 668.43;" xml:space="preserve">
<style type="text/css">
	.st0{display:none;}
	.st1{display:inline;}
	.st2{fill:#72AFAE;}
	.st3{fill:#E2DDAC;}
	.st4{fill:#2A2A2D;}
	.st5{fill:#F93838;}
	.st6{opacity:0.42;}
	.st7{fill:#F2E270;}
	.st8{fill:#C4CED6;}
	.st9{fill:#F45656;}
	.st10{fill:#FFFFFF;}
	.st11{opacity:0.37;}
	.st12{fill:#B5F2F4;}
	.st13{fill:#DFEBF4;}
	.st14{fill:#8BA8BC;}
	.st15{fill:#0D91BF;}
	.st16{fill:#141416;}
	.st17{fill:#EFE5A5;}
	.st18{fill:#F2E47E;}
	.st19{opacity:0.3;}
	.st20{fill:#1D1D1B;}
	.st21{fill:none;}
	.st22{opacity:0.2;}
	.st23{fill:#E5B045;}
	.st24{fill:#0A0808;}
	.st25{fill:#140202;}
	.st26{fill:#733939;}
	.st27{fill:#E2C78D;}
	.st28{fill:#E2AAAA;}
	.st29{fill:#E08622;}
	.st30{fill:#E2C0C0;}
	.st31{fill:#DDDDDD;}
	.st32{fill:#EAEAEA;}
	.st33{fill:#EFC90C;}
	.st34{fill:#E5E520;}
	.st35{fill:#F44A4A;}
	.st36{fill:none;stroke:#E5BB45;stroke-width:3;stroke-miterlimit:10;}
	.st37{fill:#0C6D25;}
</style>
<g id="BACKGROUND" class="st0">
	<g class="st1">
		<rect x="-136.82" y="-88.43" class="st2" width="800" height="800"/>
	</g>
</g>
<g id="COLOR">
</g>
<g id="SHADOWS">
</g>
<g id="LIGHTS">
</g>
<g id="DETAILS">
</g>
<g id="LINEART">
	<g>
		<g>
			<polygon class="st3" points="334.36,376.62 325.26,381.92 307.49,391.77 295.85,399.86 285.24,411.03 281.81,417.16 
				225.84,419.3 223.55,414.64 218.4,407.88 213.11,402.84 205.91,397.96 192.97,389.12 177.08,380.24 172.03,377.42 187.28,375.8 
				240.54,375.8 328.74,375.72 			"/>
		</g>
		<g>
			<path class="st4" d="M281.07,419.23c-0.23,16.04-14.74,28.94-30.62,27.49c-6.96-0.63-12.06-3.11-17.05-8.19
				c-3.7-3.77-6.27-8.6-7.16-13.81c-0.78-4.56-0.41-10.87,1.22-15.2c1.48-3.96,3.87-7.57,6.94-10.47
				c7.92-7.46,19.51-9.25,29.49-5.08c4.78,2,9.03,5.26,12.09,9.44C279.66,408.45,281.16,413,281.07,419.23z"/>
		</g>
		<g>
			<path class="st3" d="M233.91,414.43c1.96-8.93,9.92-15.61,19.44-15.61c9.52,0,17.48,6.68,19.44,15.61l0.15,7.81
				c-1.66,9.32-9.8,16.39-19.6,16.39c-9.79,0-17.94-7.07-19.6-16.39L233.91,414.43z"/>
		</g>
		<g>
			<path class="st5" d="M311.03,517.79c0.64,12.1,2.24,30.93-2.96,40.08c-0.34-5.87-5.08-8.44-7.21-13.94
				c-1.65-4.25-4.41-9.35-4.74-13.94c-4.69,18.54,10.94,36.72-2.98,56.9c0.15-7.13-6.21-19.14-7.98-27.03
				c-3.83,8.55-2.81,24.86-3.98,35.1c-1.18,10.28-3.75,17.76-8.47,27.14c-7.27,14.46-10.49,31.4-16.43,44.32
				c-5.94-12.92-9.16-29.86-16.43-44.32c-4.72-9.38-7.29-16.86-8.47-27.14c-1.17-10.24,1.84-30.54-1.99-39.09
				c-1.77,7.89-9.11,20.76-8.96,27.89c-15.93-19.5-1.28-35.24-5.98-53.78c-0.33,4.59-0.03,12.09-1.68,16.34
				c-2.13,5.5-7.94,5.67-8.28,11.54c-5.21-9.16-3.6-27.98-2.96-40.08c0.35-6.57-1.08-13.26-1.59-19.79
				c-0.3-3.83-1.94-17.25,3.8-18.25c0.69-0.12,1.4,0.01,2.09,0.17c2.35,0.56,4.6,1.51,6.95,2.09c2.76,0.68,5.61,0.84,8.44,1.01
				c6.13,0.35,12.26,0.7,18.39,1.05c5.52,0.31,10.77,1.93,16.39,2.09c7.61,0.22,15.19-0.84,22.72-1.9
				c4.37-0.61,8.76-1.23,13.03-2.35c5.68-1.48,11.69-3.73,17.59-1.99c4.69,1.38,3.61,7.44,3.6,11.53
				C312.91,500.23,310.57,509.03,311.03,517.79z"/>
		</g>
		<g class="st6">
			<path class="st7" d="M293.96,508.19c0.43,8.18,1.52,20.91-2,27.1c-0.23-3.97-3.44-5.71-4.88-9.43c-1.11-2.88-2.98-6.32-3.21-9.43
				c-3.17,12.54,7.4,24.83-2.01,38.48c0.1-4.82-4.2-12.94-5.39-18.28c-2.59,5.78-1.9,16.81-2.69,23.74
				c-0.8,6.95-2.54,12.01-5.73,18.36c-4.92,9.78-7.09,21.24-11.11,29.97c-4.02-8.73-6.2-20.19-11.11-29.97
				c-3.19-6.34-4.93-11.4-5.73-18.36c-0.79-6.93,1.24-20.65-1.34-26.43c-1.2,5.34-6.16,14.04-6.06,18.86
				c-10.78-13.19-0.87-23.83-4.04-36.37c-0.22,3.11-0.02,8.17-1.14,11.05c-1.44,3.72-5.37,3.84-5.6,7.81
				c-3.52-6.19-2.44-18.92-2-27.1c0.23-4.44-0.73-8.97-1.08-13.38c-0.2-2.59-1.31-11.66,2.57-12.34c0.47-0.08,0.95,0.01,1.41,0.12
				c1.59,0.38,3.11,1.02,4.7,1.41c1.86,0.46,3.79,0.57,5.71,0.68c4.15,0.24,8.29,0.48,12.44,0.71c3.73,0.21,7.28,1.3,11.08,1.41
				c5.14,0.15,10.27-0.57,15.37-1.28c2.96-0.42,5.92-0.83,8.81-1.59c3.84-1,7.9-2.52,11.9-1.35c3.17,0.93,2.44,5.03,2.43,7.79
				C295.23,496.31,293.65,502.26,293.96,508.19z"/>
		</g>
		<g>
			<polygon class="st8" points="424.3,352.12 430.85,358.73 434.16,362.44 436.1,375.13 436.66,384.44 485.47,355.93 492.42,349.19 
				492.42,340.54 483.51,325.8 478.29,322.97 448.95,335.35 			"/>
		</g>
		<g>
			<path class="st9" d="M398.35,64.23l2.16,113.05l1.24,11.98l4.18,14.38l7.19,32c0.97,11.7,3.26,18.68,14.38,24.17
				c8.75,4.31,17.85,7.9,27.18,10.72c-4.23,4.01-9.61,6.8-15.33,7.95c1.78,0.54,3.61,1.11,5.06,2.27s2.47,3.07,2.03,4.88
				c-0.29,1.21-1.17,2.18-2.03,3.09c-2.18,2.29-4.53,4.37-6.81,6.54c-2.17,2.07-2.22,1.44-1.23,4.43c0.5,1.51-0.71,3.01-1.83,4.14
				c-4.74,4.82-9.51,9.66-15.03,13.54c-9.23,6.48-22.22,9.46-30.39,17.19c-1.07,1.01-1.36,2.59-1.59,4.04
				c-0.75,4.81-0.37,9.76-1.63,14.41c-0.98,3.6-2.14,7.15-3.21,10.72l-4.98,6.82l-7.71,0.59l-18.44,2.3l-13.86,1.26l-21.18,0.99
				h-20.66h-69.42l-47.92-0.19h-18.13l-10.63-3.2l-9.87-1.68l-10.69-3.5l-6.54-8.82l-2.98-14.5l-0.08-9.94c0,0-9.25-3.37-9.26-3.37
				c-5.81-2.14-12-7.12-17.17-10.54c-4.25-2.81-8.31-6.12-11.9-9.74c-2.08-2.09-7.32-7.58-7.82-10.37c-0.23-1.3,0.54-2.84,1.84-3.02
				c-2.27,0.31-6.28-4.01-7.61-5.45c-2.64-2.84-3.98-6.37-4.68-10.21c0.91-0.52,2.02-0.51,3.05-0.7c3.62-0.66,2.14-3.14,0.35-4.69
				c-0.78-0.68-2.27-0.95-3.19-1.7c-1.37-1.12-2.47-3.08-3.58-4.47c9.12-3.53,19.26-6.62,26.86-13.04
				c3.91-3.36,7.19-8.05,9.04-12.82c0.94-2.42,0.32-6.07,0.68-8.68c0.53-3.94,1.06-7.87,1.59-11.81l8.86-34.95l15-33.24l0.2-14.59
				l6.36-50.83l6.54-41.86l77.08,46.63l29.11-5.84l18.07-0.42l27,3.97l28.26,8l49.54-22.23l35.54-15.95h1.16L398.35,64.23z"/>
		</g>
		<g>
			<circle class="st3" cx="251.53" cy="194.55" r="79.53"/>
		</g>
		<g>
			<circle class="st10" cx="251.53" cy="194.55" r="62.74"/>
		</g>
		<g class="st11">
			<circle class="st12" cx="251.53" cy="194.55" r="62.74"/>
		</g>
		<g>
			<path class="st4" d="M246.56,227.93c1.22,1.3,2.55,2.5,4,3.6c1.1,0.83,2.47,1.62,3.78,1.21c0.8-0.25,1.41-0.91,1.95-1.55
				c7.57-9.04,10.19-23.21,10.9-34.76c0.7-11.22-2.03-22.64-7.67-32.36c-7.31-12.6-13.8-11.85-18.88,1.61
				C233.75,183.96,232.01,212.43,246.56,227.93z"/>
		</g>
		<g>
			<path class="st13" d="M211.57,375.13c0,0,82.69,0.95,84.28,0.59s7.02-14.49,7.02-14.49l3.08-15.62l-1.2-11.75l17.69,3.24
				l25.67,1.71l19.54-2.36l17.26-2.46l8.69-2.94l18.66-8.62l19.35-15.63l6.53-8.62l-5.93-1.09l12.28-10.59l3.21-6.42l-11.58-2.04
				l14.46-5.86l-6.7-5.3l-20.72-9.6l-3.34,2.42l-4.78,1.96l-2.9,3.75l-8.91,9.63l-6.73,5.15l-5.34,2.77l-41.46,7.06l-3.47,0.53
				l-10.69-1.32l-9.04-2.18l-15.9-6.07l-15.17-8.64l-7.34-6.12l-17.8,5.79l-16.96,1.32l-19.79-1.19l-16.56-5.21l-3.23,2.64
				l-11.48,8.18l-14.52,6.93l-10.09,3.3l-19.99,2.59h-3.87l-42.85-9.39l-11.02-9.37l-7.06-8.18l-7.92-4.42c0,0-3.89,0.13-4.16,0.13
				c-0.26,0-17.75,9.3-17.75,9.3l-6,1.91l4.77,3.72l8.16,3.87l-9.04,2.64l8.52,12.45l4.67,5.49l1.27,4.83l10.74,12.99l21.31,11.75
				l15.04,5.87l8.08,1.66l25.01,2.99l22.51-0.84l22.75-2.63h2.54l0.79,16.97l5.22,15L211.57,375.13z"/>
		</g>
		<g>
			<circle class="st14" cx="133.51" cy="286.52" r="20.29"/>
		</g>
		<g>
			<circle class="st15" cx="133.51" cy="286.52" r="14.32"/>
		</g>
		<g>
			<circle class="st14" cx="369.99" cy="286.52" r="20.29"/>
		</g>
		<g>
			<circle class="st15" cx="369.99" cy="286.52" r="14.32"/>
		</g>
		<g>
			<path d="M254.29,291.92c1.56-1.12,2.6-2.97,2.63-4.88c0.01-0.65-0.09-1.31-0.4-1.88c-0.71-1.3-2.33-1.81-3.81-1.97
				c-2.58-0.28-5.23,0.13-7.6,1.18c-0.31,0.14-0.63,0.3-0.79,0.59c-0.18,0.33-0.11,0.73-0.03,1.1c0.23,1.02,0.54,2.02,0.92,2.99
				C246.83,293.15,250.53,294.63,254.29,291.92z"/>
		</g>
		<g>
			<polygon class="st9" points="299.04,398.59 294.64,409.32 284.31,441.04 279.38,455.33 263.07,457.39 261.23,456.88 
				263.07,445.76 267.19,443.31 274.71,436.44 278.91,429.97 280.45,424.52 281.81,417.16 285.24,411.03 292.31,403.59 
				297.53,398.59 			"/>
		</g>
		<g>
			<polygon class="st9" points="205.91,397.96 209.71,410.39 217.01,430.92 225.34,453.71 232.36,456.51 245.8,458.2 244.85,453.71 
				243.9,445.76 239.35,443.31 235.52,440.53 230.61,435.57 227.55,429.49 226.23,424.72 225.84,417.84 219.23,408.62 214.1,403.78 
							"/>
		</g>
		<g>
			<polygon class="st3" points="243.9,445.76 249.69,446.84 257.53,446.43 263.07,445.76 261.88,452.92 261.23,456.88 254.83,458.2 
				244.8,456.51 			"/>
		</g>
		<g>
			<path class="st9" d="M291.32,420.03l6.25-2.19l10.29-3.43c0,0,11.09-2.32,11.59-2.39c0.5-0.07,12.23-0.98,12.23-0.98l10.96,0.48
				l5.04,0.45l6.11-35.34v-3.42l-17.84,2.52l-7.36,3.68l-18.43,10.9l-10.92,7.21l-2.61,6.33L291.32,420.03z"/>
		</g>
		<g>
			<path class="st9" d="M157.34,376.16c-0.13,0.07-0.17,0.51-0.13,1.25c0.35,6.73,6.98,38.11,6.98,38.11h4.49h14.16l16.09,3.01
				l14.18,5.27l-2.59-11.13l-4.62-14.72l-6.97-5.24l-17.38-9.98l-12.88-7.37L157.34,376.16z"/>
		</g>
		<g>
			<polygon class="st8" points="165.25,428.08 177.48,439.25 206.69,450.01 225.34,453.71 219.61,437.55 214.27,423.8 
				200.51,418.54 185.15,416.17 170.83,415.53 162.23,416.28 			"/>
		</g>
		<g>
			<polygon class="st8" points="281.99,455.33 299.04,450.5 322.55,444.67 335.85,438.22 344.97,430.06 347.82,411.03 
				341.65,411.03 331.67,411.03 320.82,411.89 307.86,414.4 297.57,417.84 290.8,421.12 280.14,454.03 			"/>
		</g>
		<g>
			<polygon class="st4" points="190.26,444.42 196.03,466.08 200.51,478.2 216.6,483.59 248.09,486.36 274.68,485.08 308.07,480.68 
				312.05,478.2 322.55,444.67 299.04,450.5 274.81,456.51 254.83,460.76 239.36,457.39 206.69,450.01 			"/>
		</g>
		<g>
			<path class="st8" d="M348.1,410.16c0,0,19.8-6.25,20.21-6.53c0.42-0.28,36.89-7.27,36.89-7.27l2.28-11.93l-4.97-17.28l-6.34-4.72
				l-18.39,6l-9.2,3.66c-2.16,0.44-4.32,0.88-6.48,1.32c-4.46,0.91-7.45-0.33-8.34,4.95c-0.69,4.06-1.45,8.1-2.17,12.15
				C350.44,397.07,349.27,403.62,348.1,410.16z"/>
		</g>
		<g>
			<polygon class="st8" points="157.74,375 164.01,420.41 148.55,445.69 143.58,445.14 134.1,440.85 125.33,434.33 119.81,427.2 
				138.91,388.43 148.15,374.32 			"/>
		</g>
		<g>
			<polygon class="st9" points="124.77,418.54 131.09,417.16 139.9,413.87 144.74,407.48 158.3,385.2 155.42,374.32 148.15,374.32 
							"/>
		</g>
		<g>
			<polygon class="st9" points="159.55,397.96 148.55,418.54 147.53,423.8 151.95,438.28 164.19,417.98 			"/>
		</g>
		<g>
			<polygon class="st9" points="352.35,386.4 365.44,383.06 376.65,381.26 382.2,379.4 390.99,368.44 391.98,365.05 381.6,365.65 
				375.71,370.08 362.73,372.48 351.55,373.48 			"/>
		</g>
		<g>
			<polygon class="st9" points="350.82,394.97 348.26,409.29 366.55,405.13 384.91,402.13 395.38,398.59 389.84,394.52 
				382.3,389.53 377.8,389.57 364.86,392.17 			"/>
		</g>
		<g>
			<path class="st4" d="M405.21,397.39l2.28,1.2l3.94-2.78l2.09-0.26c0,0,0.3,1.09,1.06,0.8c0.77-0.29,1.63,0.3,1.63,0.3l0.69-2.97
				l3.95,2.45l2.5,0.28l-0.06-4.25l6.35,2.1l2.37-2.1l2.74-6.54l1.34-10.51l-3.2-12.69l-5.5-6.91l-7.06-5.11l-6.01-0.99l-0.27,2.13
				l-4.94-1.28l-1.03,1.84l-0.59,1.68l-3.54-2.24l-1.02,0.9l-0.47,5.7l-2.97-2.31l-0.63,1.41l0.22,3.88l7.72,17.07l-1.34,16.89
				L405.21,397.39z"/>
		</g>
		<g>
			<path class="st15" d="M429.02,355.53c0-0.72,6.41-4.82,6.41-4.82l6.37-4.9v-3.65l-17.5,9.95L429.02,355.53z"/>
		</g>
		<g>
			<path class="st9" d="M476.01,360.72l-6.14-3.41l-8.25,2.95l-25.52,12.22c0,0,1.92,11.6,2.15,11.15
				C438.48,383.17,476.01,360.72,476.01,360.72z"/>
		</g>
		<g>
			<path class="st9" d="M428.56,354.81c0.38,0.15,4.49,4.27,4.49,4.27l11.83-8.4c0,0,16.05-11.12,15.86-11.37s0.6-8.5,0.6-8.5
				l-18.16,10.29l-2.37,5.87L428.56,354.81z"/>
		</g>
		<g>
			<path class="st4" d="M473.9,347.05c0.15-0.06,0.31-0.13,0.46-0.21c2.06-1.12,2.81-3.7,1.69-5.75c-1.12-2.06-3.7-2.81-5.75-1.69
				c-0.14,0.08-0.28,0.17-0.41,0.26c-1.3-1.29-3.33-1.64-5.02-0.72c-2.06,1.12-2.81,3.7-1.69,5.75c0.55,1.02,1.47,1.72,2.49,2.03
				c-0.3,1.03-0.2,2.18,0.35,3.2c1.12,2.06,3.7,2.81,5.75,1.69C473.43,350.69,474.25,348.83,473.9,347.05z"/>
		</g>
		<g>
			<path class="st15" d="M472.57,346c0.1-0.04,0.19-0.08,0.29-0.13c1.3-0.71,1.78-2.33,1.07-3.63c-0.71-1.3-2.33-1.78-3.63-1.07
				c-0.09,0.05-0.18,0.11-0.26,0.16c-0.82-0.82-2.1-1.04-3.17-0.46c-1.3,0.71-1.78,2.33-1.07,3.63c0.35,0.64,0.93,1.08,1.58,1.28
				c-0.19,0.65-0.13,1.38,0.22,2.02c0.71,1.3,2.33,1.78,3.63,1.07C472.28,348.29,472.8,347.11,472.57,346z"/>
		</g>
		<g>
			<circle class="st4" cx="472.27" cy="334.16" r="2.94"/>
		</g>
		<g>
			<circle class="st4" cx="481.07" cy="338.32" r="2.94"/>
		</g>
		<g>
			<circle class="st15" cx="481.07" cy="338.32" r="1.48"/>
		</g>
		<g>
			<circle class="st4" cx="480.26" cy="346.97" r="2.94"/>
		</g>
		<g>
			<circle class="st15" cx="480.26" cy="346.97" r="1.73"/>
		</g>
		<g>
			<circle class="st15" cx="472.27" cy="334.16" r="1.73"/>
		</g>
		<g>
			<polygon class="st4" points="119.2,428.82 124.77,433.6 133.92,440.02 141.32,443.96 147.53,445.69 151.26,445.69 153.18,447.19 
				154.84,449.23 151.36,450.5 154.84,453.5 155.58,454.93 152.55,456.83 151.63,458.2 152.97,460.1 149.18,463.01 150.06,465.39 
				144.41,468.67 136.03,468.67 120.96,465.39 111.77,460.19 106.76,452.25 105.59,448.48 111.2,444.42 108.05,442.31 
				111.59,439.19 113.95,438.54 112.81,435.83 115.17,434.38 116.84,433.81 115.17,429.49 118.48,428.08 			"/>
		</g>
		<g>
			<path class="st8" d="M109.01,459.51c-0.73,0.46-9.9,65.55-9.9,65.55l4.22,4.92l11.33,1.15l13.6,2.36l2.33-3.51l3.33-12.62
				l7.99-39.17l0.83-9.31l-6.72-0.21l-9.79-1.18l-9.4-4.49c0,0-4.22-1.03-4.64-1.93C111.77,460.19,109.01,459.51,109.01,459.51z"/>
		</g>
		<g>
			<polygon class="st16" points="101.53,526.3 108.09,522.09 118.65,521.94 125.05,524.92 130.59,529.99 126.57,533.5 118.65,533.5 
				107.03,530.37 			"/>
		</g>
		<g>
			<polygon class="st15" points="115.53,462.65 110.64,478.2 108.47,481.18 107.35,468.67 111.36,459.05 			"/>
		</g>
		<g>
			<path class="st9" d="M114.65,462.44c-0.25-0.77,4.47,2.18,4.47,2.18l-9.73,36.8l-6.56,4.22l3.98-24.46l3.52-1.67L114.65,462.44z"
				/>
		</g>
		<g>
			<polygon class="st9" points="132.9,468.3 130.11,483.98 128.25,506.47 134.65,512.78 142.74,468.89 			"/>
		</g>
		<g>
			<path class="st7" d="M287.91,506.44c0.36,6.85,1.27,17.5-1.68,22.68c-0.19-3.32-2.87-4.77-4.08-7.89
				c-0.93-2.41-2.5-5.29-2.68-7.89c-2.66,10.49,6.19,20.78-1.69,32.2c0.08-4.03-3.51-10.83-4.51-15.29
				c-2.17,4.84-1.59,14.07-2.25,19.86c-0.67,5.82-2.12,10.05-4.79,15.36c-4.11,8.18-5.94,17.77-9.3,25.08
				c-3.36-7.31-5.19-16.89-9.3-25.08c-2.67-5.31-4.12-9.54-4.79-15.36c-0.66-5.8,1.04-17.28-1.13-22.12
				c-1,4.46-5.15,11.75-5.07,15.78c-9.02-11.04-0.72-19.94-3.38-30.43c-0.19,2.6-0.02,6.84-0.95,9.25c-1.2,3.11-4.49,3.21-4.68,6.53
				c-2.95-5.18-2.04-15.83-1.68-22.68c0.2-3.72-0.61-7.5-0.9-11.2c-0.17-2.17-1.1-9.76,2.15-10.33c0.39-0.07,0.79,0.01,1.18,0.1
				c1.33,0.32,2.6,0.85,3.93,1.18c1.56,0.38,3.17,0.48,4.78,0.57c3.47,0.2,6.94,0.4,10.41,0.59c3.12,0.18,6.09,1.09,9.27,1.18
				c4.3,0.13,8.59-0.47,12.86-1.07c2.47-0.35,4.95-0.7,7.37-1.33c3.21-0.84,6.61-2.11,9.96-1.13c2.66,0.78,2.04,4.21,2.04,6.52
				C288.98,496.5,287.65,501.48,287.91,506.44z"/>
		</g>
		<g>
			<path class="st17" d="M277.58,499.32c-0.37,2.38-0.72,4.33-0.82,5.13c-0.81,6.2-1.79,13.67-5.02,19.14
				c-2.18-1.11-3.24-5.75-3.78-8.15c-1.46,3.27-1.07,9.5-1.52,13.41c-0.45,3.93-1.43,6.79-3.24,10.37c-2.78,5.52-4.01,12-6.28,16.93
				c-2.27-4.93-3.5-11.41-6.28-16.93c-1.8-3.58-2.78-6.44-3.24-10.37c-0.45-3.91,0.7-11.67-0.76-14.93
				c0.84,1.88-3.23,8.2-3.43,10.59c-3.52-4.66-9.36-12.6-8.93-18.73c0.13-1.85,1.47-3.68,1.68-5.66c0.3-2.78-0.36-5.56-0.57-8.32
				c-0.11-1.47-0.74-6.59,1.45-6.97c0.26-0.05,0.54,0,0.8,0.07c0.9,0.22,1.76,0.58,2.66,0.8c1.05,0.26,2.14,0.32,3.22,0.38
				c2.34,0.13,4.68,0.27,7.03,0.4c2.11,0.12,4.11,0.74,6.26,0.8c2.91,0.09,5.8-0.32,8.68-0.72c1.67-0.23,3.35-0.47,4.98-0.9
				c2.17-0.57,4.46-1.42,6.72-0.76C279.4,485.54,278.45,493.64,277.58,499.32z"/>
		</g>
		<g>
			<polygon class="st15" points="277.91,414.43 266.43,414.43 266.43,413.87 264.69,411.03 261.86,407.73 258.98,406.21 
				256.81,405.29 254.25,404.84 250.77,405.18 248.11,405.78 244.85,407.68 242.13,410.23 240.15,413.87 240.07,414.43 
				228.67,414.43 228.67,422.24 239.81,422.24 239.92,422.68 241.54,426.21 243.28,428.44 246.1,430.78 249.69,432.13 
				252.23,432.56 255.12,432.51 258.3,431.7 260.5,430.61 262.48,429.19 264.02,427.62 265.94,424.8 266.57,423.01 266.55,422.24 
				277.91,422.24 			"/>
		</g>
		<g>
			<path class="st18" d="M249.06,429.19c-0.31-0.45,12.73-14.76,12.73-14.76l-10.37,0.91l6.4-8.13l-15.4,11.84l12.69-0.34
				L249.06,429.19z"/>
		</g>
		<g>
			<circle class="st10" cx="262.05" cy="175.86" r="7.97"/>
		</g>
		<g>
			<path class="st3" d="M227.39,91c0-12.37,13.43-21.87,30-21.87S287.4,80.12,287.4,92.5c0,0-18.52-4.43-28.38-4.32L227.39,91z"/>
		</g>
		<g>
			<polygon class="st16" points="398.35,64.23 376.93,99.89 373.04,137.82 380.05,145.84 388.87,159.99 399.93,183.94 			"/>
		</g>
		<g>
			<polygon class="st16" points="134.52,49.36 156.32,86.26 160.09,119.98 147.3,128.15 128.16,146.44 120.09,158.59 122.95,131.81 
				128.76,81.91 			"/>
		</g>
		<g class="st19">
			<path class="st20" d="M233.55,79.51c0.46-0.38,0.97-0.77,1.55-1.19c4.5-3.25,8.37-7.82,14.5-7.38c-4.47,2.94-5.95,9.6-3.16,14.17
				c-7.81,1.37-13.29,8.32-17.42,15.09c-1.74,2.85-3.41,5.85-3.85,9.15c-0.44,3.31,0.62,7.01,3.38,8.87
				c-9.23,3.24-18.67,8.02-26.38,14.15c-10.95,8.72-19.6,20.31-24.84,33.29c-3.07,7.61-4.98,15.7-5.58,23.89
				c-2.1,28.74,13.42,58.05,38.37,72.46c-1.09,9.08-2.18,18.26-1.19,27.35c1.26,11.46,7.36,23.69,17.13,30.19
				c4.13,2.75,9.99,5.39,14.95,3.96c5-1.44,8.38-8.25,14.24-6.92c1.6,0.36,2.96,1.39,4.29,2.35c2.57,1.84,11.57,10.23,14.82,10.16
				c-5.77,0.11-11.49,1.9-16.28,5.11c-12.03,8.03-26.5,15.21-27.03,32.02c-0.11,3.56,1.3,8.02,4.85,8.35
				c0.51,0.05,1.11,0.03,1.44,0.42c0.69,0.82-0.64,1.83-1.69,2.03c-5.14,0.97-10.2-0.37-15.38,0c-2.34,0.16-4.79,0.37-6.76,1.64
				c-3.08,2-2.44,6.71-3.26,9.9c-1.08,4.21-1.85,8.51-2.31,12.83c-0.97,9.06-0.61,18.26,1.05,27.22c0.83,4.46,1.98,8.87,3.46,13.16
				c0.74,2.13,1.55,4.24,2.45,6.31c0.66,1.51,2.38,3.69,2.45,5.31c-6.96-0.92-14.1-4.21-20.43-7.13c-3-1.38-5.98-2.87-9.14-3.84
				c-2.16-0.66-4.39-1.08-6.53-1.81c-3.12-1.06-5.97-2.75-8.8-4.42c-1.11-0.66-2.22-1.32-3.17-2.19c-1.3-1.19-2.23-2.74-2.98-4.34
				c-1.02-2.18-0.78-4.2-0.86-6.54c-0.48-14.36-1.68-28.69-3.59-42.93c-0.21-1.58-0.48-3.26-1.53-4.46
				c-1.11-1.26-2.84-1.73-4.47-2.13c-3.82-0.94-7.64-1.89-11.47-2.83c-5.54-1.37-11.23-2.81-15.83-6.19
				c-3.72-2.73-6.69-7.12-6.82-11.84c-0.03-1.03,0.28-2.09,0.11-3.09c-0.21-1.26-0.9-2.55-1.17-3.83c-0.63-2.95-0.77-6.01-0.4-9
				c0.13-1.09,0.29-2.34-0.44-3.16c-0.39-0.44-0.96-0.66-1.51-0.87c-2.32-0.87-4.64-1.75-6.96-2.62c-2.24-0.84-4.48-1.69-6.67-2.67
				c-12.96-5.79-23.48-15.93-32.65-26.76c-0.39-0.46-0.77-1.19-0.33-1.6c0.25-0.23,0.63-0.21,0.96-0.29
				c1.26-0.32,1.46-2.17,0.72-3.22c-0.75-1.06-2.03-1.57-3.14-2.24c-4.46-2.66-6.5-7.94-8.23-12.83c1.53-0.08,3.07-0.15,4.6-0.23
				c1.79-0.09,3.4-1.99,1.14-3.02c-3.12-1.42-6.25-2.84-9.37-4.26c-0.6-0.27-1.25-0.59-1.52-1.2c-0.33-0.74,0.06-1.63,0.69-2.14
				c0.63-0.5,1.44-0.71,2.22-0.9c9.49-2.33,19.37-5.36,26.07-12.48c1.48-1.57,2.77-3.32,4.06-5.05c1.62-2.18,3.25-4.39,4.32-6.88
				c1.5-3.48,1.84-7.33,2.16-11.11c0.24-2.86,0.51-5.04,1.58-7.64c1.15-2.8,1.84-5.91,2.63-8.83c2.37-8.82,3.84-17.71,6.43-26.49
				c1.89-6.43,4.11-12.78,6.99-18.83c1.34-2.82,3.35-5.54,4.23-8.52c0.98-3.34,0.71-6.79,0.84-10.22c0.18-4.67,1.53-8.89,2.5-13.4
				c0.38-1.78-0.09-3.46,0.26-5.29c0.43-2.24,1.41-4.33,2.1-6.49c1.05-3.32,1.26-5.86,1.06-9.34c-0.07-1.29-0.03-2.58,0.02-3.86
				c0.26-6.95,0.52-13.94,2.01-20.74c0.59-2.68,1.36-5.32,1.99-7.99c2.04-8.63,1.82-17.42,2.84-26.17c0.28-2.36-0.61-7.43,2.57-8.16
				c1.65-0.38,3.06,1.16,4.01,2.56c2.94,4.36,4.98,8.88,6.98,13.67c0.71,1.7,1.42,3.41,2.14,5.11c0.43,1.04,0.9,2.12,1.74,2.86
				c2.37,2.07,2.02-2.69,3.58-3.62c1.36-0.82,3.11-0.31,4.57,0.32c2.26,0.98,4.41,2.2,6.55,3.42c6.21,3.54,12.06,6.22,19.14,7.61
				c6.92,1.36,14.12,1.95,20.59,4.95c4.06,1.88,7.73,4.67,12.05,5.84c4.32,1.17,9.79,0.06,11.68-3.99
				C229.96,84.66,229.64,82.74,233.55,79.51z"/>
		</g>
		<g class="st19">
			<path class="st20" d="M118.99,431.73c2.26-0.85,4.78-3.76,6.72-4.56c4.14-1.7,9.02-0.15,12.56,2.6
				c3.54,2.75,6.08,6.54,8.85,10.06c0.82,1.04,1.86,2.16,3.18,2.15c1.5-0.01,2.56-1.41,3.37-2.68c4.91-7.66,10-15.89,9.96-24.99
				c-0.02-4.27-1.18-8.44-2.16-12.59c-1.42-5.98-2.48-12.05-3.18-18.15c-0.21-1.86-0.41-3.78-1.26-5.45
				c-1.87-3.67-6.6-6.49-10.32-3.54c-3.93,3.11-3.09,10.84-5.99,15.13c-1.17,1.72-2.67,3.2-3.87,4.89
				c-2.06,2.89-3.19,6.31-4.51,9.61c-2.52,6.29-5.8,12.28-9.75,17.78c-2.11,2.94-5,6.15-5.62,9.8
				C117.6,432.06,118.28,432,118.99,431.73z"/>
		</g>
		<g class="st19">
			<path class="st20" d="M189.78,177.05c1.21-3.38,3.01-6.83,4.57-9.47c3.42-5.83,8.29-10.75,12.83-15.73
				c3.37-3.7,6.49-7.22,10.64-10.19c1.59-1.14,11.04-8.04,12.84-6.94c-2.66-1.63-3-5.6-1.51-8.33c1.49-2.74,4.27-4.49,7-5.99
				c2.73-1.5,5.62-2.92,7.61-5.32c-5.67-1.62-11.16,1-16.12,3.5c-5,2.52-10.17,4.69-15.26,7.04c-3.69,1.74-7.41,3.5-10.62,6.02
				c-3.61,2.84-6.44,6.53-9.23,10.18c-3.71,4.86-7.44,9.74-10.52,15.03c-9.16,15.7-12.24,34.68-9.46,52.64
				c0.51,3.3,1.22,6.61,2.64,9.63c0.93,1.99,2.16,3.84,3.14,5.81c1.64,3.33,2.53,6.97,3.95,10.4c3.78,9.15,11.09,16.13,19.04,21.75
				c4.11,2.91,8.57,5.21,12.76,7.99c3.02,2.01,6.69,2.1,10.11,2.91c3.36,0.8,6.06,2.63,9.31,3.69c0.75,0.24,7.64,0.81,7.51,0.64
				c-1.26-1.74-2.51-3.48-3.77-5.22c-0.76-1.06-1.54-2.13-1.98-3.36c-0.8-2.2-0.45-4.64-0.08-6.95c-6.89-3.49-13.39-5.89-19.7-10.42
				c-14.26-10.24-24.48-26.48-26.59-44c-0.41-3.39,0.15-6.56,0.09-9.9c-0.06-3.45-0.89-6.75-0.48-10.27
				C188.67,180.57,189.14,178.82,189.78,177.05z"/>
		</g>
		<g class="st19">
			<path class="st20" d="M333.63,100.01c18.91-0.7,37.53-7.87,52.02-20.05c-8.39,17.14-13.37,35.95-14.56,55.01
				c-17.08-5.95-28.77-22.47-45.75-28.69c-4.33-1.59-10.48-1.99-14.08-4.86C315.94,97.77,328.07,100.22,333.63,100.01z"/>
		</g>
		<g class="st19">
			<path class="st20" d="M378.63,345.6c3.54,0.16,7.3,0.45,10.17,2.52c0.31-5.06,0.14-10.14-0.5-15.17
				c-12.43,3.56-25.23,5.83-38.13,6.76c-3.59,0.26-7.2,0.42-10.78,0.14c-3.91-0.3-7.76-1.1-11.59-1.91
				c-6.62-1.39-13.87-3.77-20.56-4C309.9,348.67,366.99,345.2,378.63,345.6z"/>
		</g>
		<g class="st19">
			<path class="st20" d="M427.45,393.75c3.5,0.45,4.8-0.83,6.12-4.14c1.02-2.55,1.99-4.9,4.64-6.07c1.52-0.67,3.15-1.04,4.67-1.7
				c4.26-1.84,7.9-4.81,11.36-7.83c1.69-1.47,3.15-2.97,5.16-3.94c2.13-1.04,4.31-1.96,6.43-3.02c8.03-4,16.12-8.6,23.65-13.5
				c1.1-0.72,2.2-1.53,2.81-2.7c0.54-1.03,0.65-2.24,0.59-3.4c-0.17-3.7-1.92-7.29-4.73-9.71c0.61,4.62-2.38,8.51-5.87,11.2
				c-3.3,2.53-7.17,4.19-10.78,6.28c-6.22,3.6-11.63,8.46-17.83,12.1c-5.73,3.37-11.75,5.12-18.39,4.52
				c-2.66-0.24-3.85-0.37-5.18-2.97c-0.95-1.87-1.39-4.64-3.69-5.36c-2.72-0.85-4.98,2.37-5.47,5.18s-0.45,6.09-2.64,7.92
				c-0.45-1.79-2.56-2.96-4.31-2.39c-0.33,2.65-2.15,6.21-4.57,5.07c-0.83-0.39-1.31-1.26-1.97-1.9c-2.66-2.58-7.02-0.84-10.34,0.79
				c-11.77,5.74-27.08,7.95-37.08-0.51c-1.55-1.31-2.87-2.86-4.4-4.12c-2.93,4.93-4.06,11.77-5.12,17.43
				c-0.97,5.15-2.67,12.33-1.9,17.48c0.13,0.88,48.31-8.74,51.79-9.79c1.48-0.45,2.98-0.84,4.46-1.26c0.44-0.12,0.9-0.25,1.34-0.14
				c0.49,0.12,0.88,0.51,1.36,0.65c1.9,0.56,2.93-2.74,4.91-2.87c1.43-0.1,3.04,1.5,4.08,0.51c0.19-0.18,0.31-0.42,0.5-0.6
				c0.82-0.77,2.11,0.05,2.97,0.76s2.43,1.21,2.9,0.19c0.32-0.69-0.21-1.64,0.29-2.23c0.34-0.4,0.95-0.36,1.47-0.3
				C425.62,393.51,426.54,393.63,427.45,393.75z"/>
		</g>
		<g class="st19">
			<path class="st20" d="M229.44,455.79c-13.42-3.26-26.84-6.52-40.27-9.78c2.42,7.56,5.05,15.06,7.89,22.47
				c1.59,4.14,3.43,8.5,7.1,10.99c3.13,2.12,7.08,2.53,10.84,2.87c13.19,1.2,26.37,2.4,39.56,3.59c-5.21-0.47-11.61-2.97-15.08-6.97
				c-2.23-2.57-3.65-4.26-2.39-7.4c1.21-3,4.58-5.55,7.47-6.75c2.14-0.89,4.59-1.27,6.78-0.51c2.19,0.77,3.99,2.88,3.89,5.2
				c0.25-2.33,0.25-4.7,0-7.03c-0.06-0.58-0.15-1.18-0.47-1.67c-1.51-2.25-10.31-2.17-12.84-2.63
				C237.74,457.41,233.59,456.8,229.44,455.79z"/>
		</g>
		<g class="st19">
			<path class="st20" d="M265.56,465.12c0.41,0.56,0.73,1.2,1.24,1.66c0.5,0.45,1.14,0.71,1.72,1.05c1.94,1.16,3.13,3.47,2.94,5.72
				c0.67-2.86,1.48-5.96,3.8-7.76c1.07-0.83,2.38-1.3,3.7-1.63c1.36-0.34,2.79-0.54,4.15-0.21c1.36,0.33,2.64,1.27,3.05,2.6
				c2.41-3.66,5.56-6.82,9.21-9.25c0.81-0.54,1.65-1.04,2.59-1.29c1.74-0.47,3.71,0.05,4.99,1.32c1.28,1.26,1.83,3.23,1.39,4.97
				c0.69-2.3,1.95-4.51,3.88-5.93s4.63-1.94,6.81-0.94s3.58,3.68,2.78,5.95c0.16-3.49,1.01-6.94,2.47-10.11
				c0.82-1.78,1.84-3.5,2.23-5.41c0.07-0.33,0.11-0.68-0.02-0.99c-0.42-1.03-1.96-0.58-2.91-0.01c-13.01,7.79-28.98,8.18-43.66,12
				c-3.25,0.85-6.46,1.87-9.77,2.48c-2.46,0.45-6.83,0.15-8.85,1.54C259.89,462.8,263.39,462.12,265.56,465.12z"/>
		</g>
		<g class="st19">
			<path class="st20" d="M242.01,466.91c-0.27,0.41-0.7,0.71-1.17,0.83"/>
		</g>
		<g class="st19">
			<path class="st20" d="M196.95,146.63c0.21,0.21,0.46,0.38,0.71,0.53c0.77,0.43,1.69,0.67,2.56,0.48c0.87-0.18,1.66-0.84,1.86-1.7
				c-0.32-0.02-0.63,0.12-0.93,0.22c-0.48,0.17-1,0.27-1.5,0.19c-0.5-0.08-0.99-0.37-1.22-0.83c-0.11-0.22-0.16-0.46-0.18-0.7
				c-0.03-0.36,0-0.74,0.12-1.09c0.08-0.23,0.61-0.73,0.62-0.89c0.02-0.57-0.9-0.48-1.27-0.32
				C196.19,143.17,195.82,145.48,196.95,146.63z"/>
		</g>
		<g class="st19">
			<path class="st20" d="M177.35,198.92c-0.85,0.43-1.4,1.37-1.41,2.32c-0.02,0.95,0.47,1.89,1.23,2.46
				c1.1,0.84,2.77,0.57,3.52-0.63c0.45-0.72,0.57-1.6,0.67-2.45c-0.94,1.14-3.48,0.84-3.57-0.86c-0.01-0.24,0.03-0.5-0.09-0.72
				s-0.48-0.3-0.58-0.08c-0.09,0.14-0.18,0.29-0.28,0.43"/>
		</g>
		<g class="st19">
			<path class="st20" d="M199.85,247.63c0.11-0.02,0.22-0.04,0.32-0.07c0.85-0.23,2.06-1.11,2.11-2.1c0.1-1.92-1.19-0.2-2.05-0.06
				c-0.44,0.07-1.45-0.04-1.76-0.44c-0.18-0.24-0.22-0.55-0.24-0.85c-0.01-0.13-0.05-1.78,0.02-1.82
				C195.03,243.87,196.23,248.23,199.85,247.63z"/>
		</g>
		<g class="st19">
			<path class="st20" d="M252.56,266.94c-0.32,0.03-0.64,0.04-0.95-0.04c-0.89-0.22-1.49-1.23-1.27-2.12
				c-0.65,0.32-0.92,1.14-0.79,1.85c0.13,0.71,0.59,1.31,1.09,1.83c0.26,0.26,0.53,0.51,0.86,0.68c0.69,0.36,1.56,0.29,2.25-0.08
				c0.68-0.37,1.19-1.03,1.48-1.75c0.07-0.17,0.13-0.36,0.12-0.54C255.23,265.1,253.59,266.85,252.56,266.94z"/>
		</g>
		<g class="st19">
			<path class="st20" d="M248.71,121.8c0.03-0.12,0.05-0.25,0.05-0.39c0-0.71-1.87,0.25-2.01,0.42c-0.91,1.08-1.53,2.35-0.59,3.5
				c0.76,0.93,2.17,1.66,3.39,1.39c0.05-0.01,0.1-0.02,0.14-0.05c0.15-0.1,0.12-0.34,0-0.47s-0.31-0.18-0.48-0.24
				c-0.84-0.33-1.43-1.21-1.42-2.11C247.8,123,248.51,122.55,248.71,121.8z"/>
		</g>
		<g class="st19">
			<path class="st20" d="M303.26,150.25c0.42,0.11,0.9,0.12,1.43-0.02c0.85-0.23,1.75-0.54,2.25-1.27c0.21-0.31,0.28-0.82-0.05-0.99
				c-0.22-0.11-0.48-0.01-0.71,0.08c-0.89,0.34-1.94,0.35-2.65-0.34c-0.59-0.58-0.44-1.39-0.42-2.14c-0.38-0.13-0.73,0.23-0.96,0.55
				C300.94,147.71,301.63,149.81,303.26,150.25z"/>
		</g>
		<g class="st19">
			<path class="st20" d="M320.77,193.69c0.02,1.1,0.68,2.15,1.64,2.67c0.92,0.5,2.12,0.5,2.99-0.08s1.33-1.75,1-2.75
				c-0.44,0.15-0.74,0.55-1.13,0.8c-0.82,0.53-2.03,0.3-2.59-0.49C322.17,193.12,320.75,191.86,320.77,193.69z"/>
		</g>
		<g class="st19">
			<path class="st20" d="M307.5,240.26c-0.46,0.02-0.97-0.05-1.28-0.4c-0.45-0.51-0.27-1.36-0.7-1.88
				c-0.03-0.04-0.07-0.07-0.11-0.08c-0.07-0.01-0.14,0.04-0.19,0.08c-0.96,0.88-1.19,2.45-0.52,3.57c0.19,0.32,0.45,0.61,0.78,0.79
				c0.42,0.24,0.92,0.28,1.4,0.33c0.62,0.05,1.27,0.1,1.82-0.19c0.43-0.23,0.72-0.65,0.94-1.09c0.28-0.54,0.45-1.18,0.39-1.79
				c-0.03-0.25-0.31-1.42-0.76-1.15c-0.22,0.13-0.09,0.82-0.2,1.05C308.81,240.07,308.07,240.23,307.5,240.26z"/>
		</g>
		<g>
			<path class="st10" d="M289.66,186.87c0.21,10.05-3.25,20.13-9.58,27.93c4.79,0.15,9.38-2.38,12.63-5.9
				c3.25-3.52,5.33-7.95,7.04-12.43c1.93-5.06,3.46-10.4,3.17-15.8c-0.32-5.98-2.84-11.62-5.87-16.79
				c-3.23-5.51-7.35-11.07-13.11-14.13c-4.39-2.32-9.47-3.41-8.11,2.77c1.16,5.23,5.96,9.91,8.48,14.51
				C287.64,173.09,289.52,179.95,289.66,186.87z"/>
		</g>
		<g class="st19">
			<path class="st10" d="M364.32,175.54c1.69,4.73,6.37,9.75,10.8,7.48c3.73-1.91,3.61-7.25,2.62-11.32
				c-1.39-5.72-40.41-72.64-48.89-45.22c-2.31,7.52,9.91,14.52,13.88,18.81c8.38,9.05,17.52,18.22,21.51,30.02
				C364.27,175.39,364.29,175.46,364.32,175.54z"/>
		</g>
		<g class="st19">
			<path class="st10" d="M362.68,80.08c-6.17,3.18-12.6,5.88-19.34,7.45c-2.07,0.48-4.68,1.25-4.91,3.37
				c14.55,0.68,27.21-9.35,41.18-13.48c3.84-1.14,7.87-1.85,11.37-3.79c3.5-1.94,6.48-5.51,6.27-9.51
				c-0.09-1.67-22.43,9.11-24.49,10.33C369.48,76.4,366.12,78.31,362.68,80.08z"/>
		</g>
		<g>
			<path class="st21" d="M388.78,214.76c-1.51,8.44-2.19,17.04-2.01,25.61c5.95,1.29,11.25-5.23,11.14-11.32
				c-0.11-6.09-3.78-11.46-7.31-16.43"/>
		</g>
		<g class="st19">
			<path class="st10" d="M297.4,135.31c-1.95-0.54-4.02-0.68-6.02-0.38c-0.37,0.06-0.76,0.13-1.05,0.38
				c-0.56,0.47-0.53,1.33-0.34,2.03c0.89,3.26,4.03,5.29,6.71,7.36c2.79,2.15,5.3,4.64,7.8,7.12c1.4,1.39,2.82,2.8,3.81,4.51
				c1.04,1.81,1.55,3.87,2.27,5.82c0.34,0.93,1.08,2.02,2.04,1.75c0.44-0.12,0.74-0.51,0.97-0.9c1.03-1.74,1.28-3.83,1.33-5.85
				c0.03-1.01,0.02-2.03-0.28-3c-0.26-0.87-0.74-1.65-1.21-2.42c-1.09-1.79-2.18-3.57-3.27-5.36c-1.52-2.48-3.11-5.05-5.56-6.61
				c-1.2-0.76-2.5-1.41-3.66-2.22C299.71,136.7,298.9,135.73,297.4,135.31z"/>
		</g>
		<g class="st19">
			<path class="st10" d="M258.97,74.1c-0.6,0.23-1.28,0.63-1.28,1.27c0,0.61,0.62,1.02,1.17,1.28c2.05,0.98,4.24,1.67,6.25,2.73
				c2.01,1.06,3.9,2.56,4.82,4.65c0.16,0.37,0.3,0.77,0.57,1.07c0.62,0.71,1.71,0.7,2.64,0.59c0.78-0.09,1.61-0.22,2.19-0.75
				c1.52-1.41,0.34-4.86-0.52-6.39c-0.97-1.73-2.53-3.02-4.3-3.88C267.03,72.98,262.6,72.74,258.97,74.1z"/>
		</g>
		<g>
			<path class="st21" d="M300.25,451.83c-2.72,7-5.86,13.83-9.4,20.45c5.93,1.67,13.34-0.21,16-5.77c2.66-5.56-2.71-13.65-8.6-11.82
				"/>
		</g>
		<g class="st19">
			<path class="st10" d="M369.85,356.93c-0.66,1.07-1.62,1.92-2.61,2.7c-2.75,2.19-5.81,3.99-9.05,5.34
				c-0.76,0.32-1.64,0.75-1.73,1.57c-0.1,0.96,0.97,1.59,1.9,1.87c5.45,1.68,11.69,0.53,16.19-2.98c1.17-0.91,2.23-1.98,2.94-3.28
				c1.05-1.92,1.24-4.19,1.19-6.38c-0.03-1.49-0.17-3.02-0.86-4.35c-1.14-2.2-4.19-3.36-5.96-1.12
				C370.51,352.04,371.08,354.96,369.85,356.93z"/>
		</g>
		<g class="st22">
			<path class="st15" d="M476.39,330.69c0.35,0.52,0.59,1.14,1.11,1.49c0.71,0.49,1.65,0.3,2.51,0.29c1.92-0.01,3.8,1.08,4.74,2.75
				c0.94,1.67,0.91,3.85-0.09,5.48c-0.51,0.84-1.29,1.69-1.11,2.66c0.1,0.53,0.47,0.95,0.77,1.39c1.23,1.82,1.25,4.48-0.23,6.1
				c-1.48,1.62-4.44,1.7-5.77-0.04c-0.3-0.39-0.56-0.89-1.04-1.02c-0.88-0.24-1.45,0.86-1.91,1.65c-1.32,2.25-4.39,3.02-6.89,2.26
				c-2.49-0.76-4.45-2.72-5.92-4.88c-1.12-1.65-2.04-3.5-2.18-5.49c-0.36-4.98,4.65-5.49,6.42-9.24
				C468.33,330.87,473.08,325.75,476.39,330.69z"/>
		</g>
		<g class="st22">
			<path class="st15" d="M475.97,331.97c0.31,0.46,0.52,1,0.98,1.32c0.62,0.43,1.45,0.26,2.21,0.26c1.69-0.01,3.35,0.95,4.18,2.42
				c0.83,1.47,0.8,3.39-0.08,4.83c-0.45,0.74-1.14,1.49-0.98,2.34c0.09,0.46,0.41,0.84,0.68,1.23c1.08,1.6,1.1,3.94-0.2,5.37
				c-1.3,1.43-3.91,1.5-5.08-0.03c-0.27-0.35-0.5-0.79-0.92-0.9c-0.77-0.21-1.27,0.76-1.68,1.45c-1.16,1.98-3.87,2.66-6.06,1.99
				c-2.2-0.67-3.92-2.4-5.21-4.29c-0.99-1.45-1.79-3.08-1.92-4.83c-0.32-4.38,4.09-4.83,5.65-8.13
				C468.88,332.12,473.06,327.61,475.97,331.97z"/>
		</g>
		<g class="st22">
			<path class="st15" d="M476.92,329.08c0.4,0.6,0.68,1.31,1.28,1.72c0.82,0.56,1.9,0.34,2.89,0.34c2.21-0.01,4.38,1.25,5.47,3.17
				c1.09,1.92,1.04,4.43-0.11,6.32c-0.59,0.97-1.49,1.94-1.28,3.06c0.11,0.61,0.54,1.1,0.89,1.61c1.42,2.09,1.44,5.16-0.26,7.03
				c-1.7,1.87-5.12,1.96-6.65-0.04c-0.35-0.45-0.65-1.03-1.2-1.18c-1.01-0.28-1.67,0.99-2.2,1.9c-1.52,2.59-5.06,3.48-7.94,2.6
				s-5.13-3.14-6.82-5.62c-1.29-1.9-2.35-4.04-2.51-6.33c-0.42-5.74,5.35-6.32,7.4-10.65C467.63,329.28,473.11,323.38,476.92,329.08
				z"/>
		</g>
		<g class="st22">
			<path class="st15" d="M477.64,326.89c0.47,0.71,0.8,1.55,1.51,2.03c0.96,0.66,2.24,0.4,3.41,0.4c2.6-0.01,5.16,1.47,6.44,3.74
				c1.28,2.27,1.23,5.23-0.12,7.45c-0.7,1.14-1.76,2.29-1.51,3.61c0.13,0.71,0.64,1.29,1.04,1.89c1.67,2.47,1.7,6.08-0.31,8.29
				s-6.03,2.32-7.84-0.05c-0.41-0.54-0.77-1.21-1.42-1.39c-1.19-0.33-1.96,1.17-2.59,2.24c-1.79,3.06-5.97,4.1-9.36,3.07
				c-3.39-1.03-6.05-3.7-8.04-6.63c-1.52-2.24-2.77-4.76-2.96-7.46c-0.49-6.77,6.31-7.46,8.72-12.55
				C466.69,327.12,473.14,320.17,477.64,326.89z"/>
		</g>
		<g class="st19">
			<path class="st10" d="M329.68,421.51c-1.97,3.09-4.32,5.95-7.11,8.54c-6.62,6.13-14.34,11.83-23.31,12.78
				c9.24,1.55,18.49-2.33,26.77-6.71c2.8-1.48,5.6-3.06,7.84-5.29c1.6-1.59,2.87-3.48,3.99-5.43c4.11-7.12,6.39-15.29,6.57-23.51
				c0.12-5.44-0.97-12.79,3.22-16.67c1.4-1.3,2.6-3.64,1.19-4.93c-10.47,0.78-20.73,4.18-29.59,9.82c-0.74,0.47-1.58,1.22-1.33,2.06
				c0.13,0.43,0.52,0.73,0.92,0.94c4.35,2.27,9.37-3.39,14.13-2.22c2.47,0.61,4.18,3.01,4.68,5.5c0.5,2.49-0.01,5.07-0.64,7.53
				C335.39,410.23,333.08,416.2,329.68,421.51z"/>
		</g>
		<g class="st19">
			<path class="st10" d="M316.57,165.08c-1.14,0.87-2.34,1.82-2.81,3.18c-0.47,1.36,0.19,3.19,1.61,3.41
				c0.96,0.14,1.88-0.49,2.46-1.28c0.98-1.34,1.22-3.2,0.6-4.74c-0.09-0.22-0.21-0.46-0.43-0.56c-0.22-0.1-0.55,0.01-0.56,0.25"/>
		</g>
		<g>
			<path class="st10" d="M275.93,221.55c-1.14-0.09-2.01,1.04-2.37,2.13c-0.61,1.82-0.24,4.2,1.48,5.05
				c0.69,0.34,1.49,0.37,2.25,0.3c1.78-0.18,3.57-1.02,4.49-2.56s0.68-3.78-0.79-4.81c-1.75-1.22-4.13-0.31-6.05,0.63"/>
		</g>
		<g>
			<path class="st10" d="M398.03,311.84c-6.94,3.75-15.34,4.4-21.88,8.81c-0.7,0.47-1.46,1.18-1.28,2.01
				c0.16,0.78,1.05,1.14,1.82,1.33c4.13,1.04,8.49,0.85,12.69,0.16c9.16-1.51,17.92-5.39,25.19-11.17c2.18-1.73,4.3-3.73,5.32-6.32
				c0.98-2.48,1.95-8.43-0.2-10.54c-2.1-2.06-5.22-0.81-6.89,0.93C407.8,302.31,404.81,308.18,398.03,311.84z"/>
		</g>
		<g class="st19">
			<path class="st10" d="M378.31,276.76c2.79,5.46,2.92,12.2,0.35,17.77s-7.78,9.84-13.75,11.27c5.2,1.49,10.99,0.76,15.66-1.96
				c4.67-2.72,8.16-7.4,9.43-12.66c0.35-1.46,0.54-2.96,0.51-4.45c-0.09-4.05-1.78-7.91-3.8-11.42c-1.59-2.76-3.49-5.49-6.25-7.07
				c-2.29-1.32-5-1.74-7.64-1.73c-2.67,0.01-6.12,0.25-8.38,1.67c1.75,1.08,4.15,1.06,6.12,1.75
				C374.08,271.15,376.63,273.45,378.31,276.76z"/>
		</g>
		<g class="st19">
			<path class="st10" d="M134.87,295.33c-5.18-1.75-9.48-5.94-11.37-11.07c-0.55,0.92-0.26,2.08,0.04,3.11
				c0.81,2.72,1.69,5.56,3.71,7.55c2.02,1.99,5.58,2.73,7.67,0.81c-0.19-0.65-1.31-0.66-1.52-0.02"/>
		</g>
		<g class="st19">
			<path class="st20" d="M221.28,419.16c-0.07,2.22,0.27,4.44,0.72,6.61c1.84,8.87,6.12,18.02,14.22,22.07
				c4.77,2.39,10.27,2.71,15.59,2.97c3.17,0.15,6.37,0.3,9.5-0.24c3.13-0.54,6.22-1.83,8.39-4.15c2.29-2.46,3.34-5.79,4.32-9.01
				c-8.69,8.44-22.51,11.09-33.71,6.47c-9.41-3.88-14.5-15.69-14.81-25.36c-0.05-1.4,0.28-2.78,0.61-4.14
				c0.51-2.13,1.02-4.27,1.53-6.4c0.16-0.68,0.33-1.38,0.64-2.01c0.67-1.38,2.26-2.49,2.36-4.02
				C225.13,404.87,221.47,413.19,221.28,419.16z"/>
		</g>
		<g class="st19">
			<path class="st20" d="M238.58,410.5c-0.69,0.64-1.29,1.37-2.07,1.89c-0.96,0.64-2.11,0.92-3.23,1.18
				c-1.35,0.32-2.69,0.64-4.04,0.96c2.03,0.08,4.06,0.13,6.09,0.14c1.03,0,2.06,0,3.09-0.02c0.75-0.01,1.73,0.07,2.02-0.81
				c0.22-0.68,0.64-1.23,0.98-1.84c0.35-0.63,0.81-1.2,1.28-1.75c0.45-0.53,0.92-1.03,1.36-1.57c0.22-0.27,0.44-0.54,0.63-0.83
				c0.09-0.13,0.44-0.89,0.56-0.91C242.91,407.45,240.34,408.86,238.58,410.5z"/>
		</g>
		<g class="st19">
			<path class="st20" d="M233.74,424.51c0.25,0.07,0.49,0.14,0.74,0.2c0.69,0.17,1.39,0.31,2.03,0.62c2.47,1.2,4.14,4.14,6.11,5.98
				c3.64,3.41,9.13,4.28,14.03,3.31c1.33-0.26,2.68-0.67,3.73-1.53c1.11-0.91,1.81-2.29,1.88-3.72c-2.64,1.99-6.34,3.37-9.62,3.03
				c-0.88-0.09-1.74-0.21-2.61-0.4c-1.82-0.4-3.66-1.03-5.19-2.13c-0.77-0.55-1.38-1.29-1.94-2.04c-0.66-0.87-1.27-1.78-1.83-2.71
				c-0.26-0.44-0.71-0.99-0.84-1.48c-0.09-0.35,0.1-0.8-0.19-1.1c-0.32-0.32-1.54-0.35-1.97-0.35c-0.99,0-1.98-0.01-2.97-0.01
				c-2.3-0.01-4.54,0.27-6.83,0.42c0.99,0.36,1.99,0.72,2.98,1.07C232.07,423.96,232.9,424.26,233.74,424.51z"/>
		</g>
		<g class="st19">
			<path class="st10" d="M273.37,417.6c-0.61-0.09-1.26-0.06-1.88-0.02c-1.21,0.07-2.41,0.15-3.62,0.31
				c-2.38,0.33-4.73,0.95-7.13,0.9c-0.15-1.85,0.55-3.56-0.2-5.38c-0.87-2.11-3.32-3.22-5.6-3.22c-2.25,0-4.34,0.97-6.43,1.68
				c0.82-0.28,1.78-3.23,2.56-3.95c1.39-1.27,3.02-1.4,4.83-1.07c4.1,0.76,6.22,4.36,7.23,8.13c0.89,3.33,9.78,0.7,12.51,0.69
				c0.25,0,0.54,0.02,0.7,0.21c0.12,0.15,0.13,0.36,0.13,0.55c-0.01,1.39-0.39,2.79-1.09,3.99c0.51-0.86-0.08-2.03-0.97-2.5
				C274.1,417.76,273.74,417.66,273.37,417.6z"/>
		</g>
		<g>
			<path d="M408.61,399.59c-0.09,0-0.18-0.01-0.26-0.04c-1.15-0.31-2.82-0.93-3.97-2.64c-0.31-0.46-0.18-1.08,0.27-1.39
				c0.46-0.31,1.08-0.19,1.39,0.27c0.54,0.81,1.32,1.35,2.49,1.72c0.6-0.36,1.3-1.26,1.92-2.07c0.43-0.56,0.88-1.14,1.35-1.64
				c0.19-0.2,0.45-0.31,0.72-0.31c0,0,0,0,0.01,0c0.27,0,0.54,0.12,0.72,0.32l0.18,0.19c0.85,0.92,1.54,1.6,2.28,1.67
				c0.02-0.18,0.02-0.42,0.02-0.6c0.01-0.58,0.01-1.24,0.27-1.82c0.12-0.26,0.34-0.46,0.62-0.54c0.27-0.08,0.57-0.05,0.82,0.1
				c0.43,0.26,0.88,0.57,1.34,0.88c1.33,0.91,2.83,1.93,3.95,1.82c0-0.3-0.12-0.96-0.2-1.39c-0.12-0.68-0.25-1.38-0.21-2.04
				c0.02-0.31,0.18-0.59,0.44-0.77c0.26-0.17,0.58-0.21,0.88-0.12c0.72,0.24,1.45,0.58,2.15,0.91c1.58,0.74,3.08,1.44,4.33,1.03
				c0.85-0.61,1.74-2.94,2.46-4.82c0.67-1.76,1.31-3.43,2.09-4.5c0.33-0.45,0.95-0.54,1.4-0.22c0.45,0.33,0.54,0.95,0.22,1.4
				c-0.63,0.86-1.24,2.48-1.84,4.04c-0.98,2.57-1.91,4.99-3.36,5.87c-0.05,0.03-0.11,0.06-0.16,0.08c-2.05,0.77-4.13-0.2-5.97-1.06
				c-0.15-0.07-0.3-0.14-0.45-0.21c0,0.02,0.01,0.03,0.01,0.05c0.22,1.2,0.47,2.56-0.46,3.38c-0.1,0.09-0.22,0.16-0.35,0.2
				c-2.06,0.69-4.13-0.7-5.96-1.95c-0.02,0.8-0.15,1.82-1.17,2.18c-0.06,0.02-0.11,0.04-0.17,0.04c-1.65,0.28-2.88-0.68-3.83-1.64
				c-0.17,0.21-0.34,0.44-0.52,0.67c-0.92,1.2-1.87,2.44-3.1,2.86C408.83,399.58,408.72,399.59,408.61,399.59z"/>
		</g>
		<g>
			<path d="M399.06,363.44c-0.01,0-0.01,0-0.02,0c-0.55-0.01-0.99-0.47-0.98-1.02c0.07-3.74-0.16-4.87-0.24-5.25
				c-0.1-0.51-0.08-0.87,0.36-1.32c0.09-0.1,0.24-0.24,0.48-0.59c0.17-0.24,0.44-0.4,0.74-0.42c1.31-0.1,2.13,0.55,2.75,1.27
				c-0.02-0.06-0.03-0.13-0.05-0.19c-0.36-1.29-0.84-3.07,0.45-4.89c0.15-0.21,0.36-0.35,0.61-0.4c1.6-0.33,2.84,0.32,3.87,1.24
				c-0.05-0.68,0.11-1.35,0.67-1.94c1.36-1.21,3.24-0.62,5.14,0.48c0.06-0.47,0.25-0.99,0.65-1.56c0.17-0.25,0.46-0.41,0.76-0.43
				c2.87-0.18,5.06,1.19,6.99,2.4c0.41,0.26,0.82,0.51,1.23,0.75c0.48,0.28,0.64,0.89,0.36,1.37s-0.89,0.64-1.37,0.36
				c-0.43-0.25-0.86-0.52-1.29-0.79c-1.69-1.06-3.3-2.06-5.29-2.11c-0.21,0.49,0.03,0.76,0.56,1.39c0.26,0.3,0.55,0.65,0.77,1.05
				c0.22,0.41,0.13,0.92-0.22,1.23s-0.87,0.33-1.25,0.05c-1.56-1.14-4.81-3.52-5.65-2.77c-0.29,0.32,0.12,1.21,0.75,2.42
				c0.37,0.72,0.75,1.46,0.93,2.19c0.1,0.41-0.07,0.83-0.42,1.07c-0.35,0.23-0.81,0.22-1.15-0.02c-0.8-0.58-1.47-1.38-2.12-2.15
				c-1.2-1.42-2.05-2.32-3.11-2.32c-0.01,0-0.01,0-0.02,0c-0.44,0.86-0.26,1.67,0.06,2.85c0.33,1.2,0.7,2.55-0.2,3.89
				c-0.16,0.23-0.41,0.39-0.68,0.43c-0.28,0.04-0.56-0.04-0.78-0.21c-0.49-0.4-0.86-0.91-1.21-1.39c-0.51-0.71-0.83-1.1-1.22-1.22
				c-0.04,0.05-0.08,0.1-0.12,0.14c0.12,0.7,0.29,2.12,0.23,5.43C400.05,363.01,399.6,363.44,399.06,363.44z"/>
		</g>
		<g>
			<path d="M405.21,398.36c-0.09,0-0.17,0-0.26-0.02c-1.1-0.14-1.87-1.15-1.73-2.24c0.15-1.14,0.35-2.08,0.55-2.99
				c0.19-0.87,0.37-1.68,0.49-2.65c0.34-2.64,0.7-5.38,0.43-7.97c-0.18-1.7-0.62-3.38-1.09-5.16c-0.16-0.62-0.32-1.22-0.47-1.83
				c-1.13-4.46-2.2-8.67-5.42-11.58c-0.82-0.74-0.88-2-0.14-2.83c0.74-0.82,2-0.88,2.83-0.14c4.12,3.72,5.39,8.73,6.62,13.57
				c0.15,0.59,0.3,1.19,0.46,1.78c0.49,1.86,0.99,3.77,1.2,5.78c0.32,3.06-0.07,6.03-0.44,8.9c-0.15,1.13-0.35,2.07-0.55,2.98
				c-0.19,0.87-0.37,1.69-0.49,2.65C407.06,397.63,406.2,398.36,405.21,398.36z"/>
		</g>
		<g>
			<path d="M436.1,385.62c-0.16,0-0.33-0.02-0.49-0.06c-1.07-0.27-1.72-1.36-1.45-2.43c1.17-4.63,0.08-8.61-1.19-13.22
				c-0.46-1.68-0.94-3.42-1.34-5.29c-0.14-0.68-0.96-2.14-1.51-3.1c-0.27-0.49-0.53-0.94-0.71-1.3c-0.71-1.4-2.44-2.56-4.11-3.69
				c-0.43-0.29-0.86-0.58-1.26-0.87c-0.72-0.51-1.12-1.01-1.38-1.34c-0.05-0.07-0.1-0.13-0.16-0.19c-0.01,0-0.07-0.01-0.18-0.03
				c-1.09-0.18-1.83-1.21-1.65-2.3c0.18-1.09,1.2-1.82,2.3-1.65c1.56,0.26,2.24,0.96,2.81,1.66c0.19,0.24,0.32,0.4,0.59,0.59
				c0.38,0.27,0.77,0.54,1.18,0.81c1.99,1.35,4.25,2.88,5.43,5.2c0.16,0.32,0.39,0.71,0.63,1.14c0.78,1.38,1.67,2.95,1.94,4.24
				c0.37,1.75,0.83,3.43,1.28,5.05c1.36,4.94,2.65,9.61,1.21,15.27C437.81,385.02,436.99,385.62,436.1,385.62z"/>
		</g>
		<g>
			<path d="M254.83,487.35c-0.03,0-0.05,0-0.08,0c-0.55-0.04-0.96-0.53-0.92-1.08c0.2-2.51,0.43-4.88,0.65-7.17
				c0.62-6.38,1.2-12.42,0.87-19.54c-0.03-0.55,0.4-1.02,0.95-1.05c0.53-0.03,1.02,0.4,1.05,0.95c0.34,7.26-0.25,13.37-0.88,19.82
				c-0.22,2.29-0.45,4.64-0.65,7.14C255.78,486.95,255.34,487.35,254.83,487.35z"/>
		</g>
		<g>
			<path d="M269.72,486.51c-0.08,0-0.16-0.01-0.24-0.03c-0.54-0.13-0.86-0.67-0.73-1.21c1.73-6.97,3.39-17.44,1.5-27.7
				c-0.1-0.54,0.26-1.06,0.8-1.17c0.55-0.1,1.07,0.26,1.17,0.8c1.96,10.61,0.25,21.38-1.52,28.54
				C270.58,486.2,270.17,486.51,269.72,486.51z"/>
		</g>
		<g>
			<path d="M237.63,486.3c-0.44,0-0.84-0.29-0.96-0.73c-2.84-10.19-2.87-18.89-0.11-29.1c0.15-0.53,0.69-0.85,1.23-0.7
				c0.53,0.14,0.85,0.69,0.7,1.23c-2.67,9.84-2.64,18.22,0.1,28.04c0.15,0.53-0.16,1.08-0.69,1.23
				C237.81,486.29,237.72,486.3,237.63,486.3z"/>
		</g>
		<g>
			<path d="M281.99,485.35c-0.11,0-0.22-0.02-0.33-0.06c-0.52-0.19-0.79-0.76-0.61-1.28c2.6-7.31,5.46-18.39,4.33-29.66
				c-0.05-0.55,0.35-1.04,0.9-1.09c0.54-0.04,1.04,0.35,1.09,0.9c1.17,11.64-1.77,23.02-4.43,30.53
				C282.79,485.09,282.4,485.35,281.99,485.35z"/>
		</g>
		<g>
			<path d="M301,482.18c-0.09,0-0.19-0.01-0.28-0.04c-0.53-0.16-0.83-0.71-0.68-1.24c2.58-8.8,4.94-18.15,3.03-27.17
				c-0.09-0.45-0.2-0.87-0.29-1.28c-0.16-0.65-0.31-1.28-0.43-1.99c-0.1-0.54,0.26-1.06,0.81-1.16c0.55-0.1,1.06,0.26,1.16,0.81
				c0.12,0.67,0.26,1.27,0.41,1.88c0.1,0.43,0.21,0.86,0.31,1.33c2.01,9.47-0.41,19.1-3.06,28.15
				C301.84,481.89,301.44,482.18,301,482.18z"/>
		</g>
		<g>
			<path d="M221.28,484.59c-0.43,0-0.83-0.28-0.96-0.72c-2.38-8.14-0.44-16.7,1.27-24.25l0.2-0.88c0.38-1.74,0.71-3.24,1.54-4.99
				c0.24-0.5,0.83-0.71,1.33-0.48c0.5,0.24,0.71,0.83,0.48,1.33c-0.73,1.54-1.04,2.94-1.39,4.56l-0.2,0.9
				c-1.66,7.32-3.53,15.61-1.3,23.25c0.15,0.53-0.15,1.08-0.68,1.24C221.47,484.58,221.38,484.59,221.28,484.59z"/>
		</g>
		<g>
			<path d="M208.6,481.68c-0.4,0-0.77-0.24-0.93-0.63c-3.06-7.75-1.9-16.84-0.88-24.86c0.26-2.01,0.5-3.92,0.68-5.79
				c0.05-0.55,0.54-0.95,1.09-0.9c0.55,0.05,0.95,0.54,0.9,1.09c-0.18,1.9-0.43,3.82-0.69,5.85c-1.04,8.16-2.12,16.6,0.76,23.87
				c0.2,0.51-0.05,1.09-0.56,1.3C208.85,481.66,208.72,481.68,208.6,481.68z"/>
		</g>
		<g>
			<path d="M469.74,352.37c-1.59,0-3.14-0.85-3.95-2.34c-0.53-0.97-0.68-2.08-0.43-3.15c-1.03-0.37-1.89-1.1-2.41-2.07
				c-0.57-1.05-0.7-2.27-0.36-3.42c0.34-1.15,1.1-2.1,2.16-2.67c1.67-0.91,3.77-0.65,5.17,0.62c0.09-0.06,0.17-0.11,0.27-0.16
				c1.05-0.57,2.27-0.71,3.42-0.36c1.15,0.34,2.1,1.1,2.67,2.16c0.57,1.05,0.7,2.27,0.37,3.42s-1.11,2.1-2.16,2.67
				c-0.1,0.05-0.2,0.1-0.29,0.15c0.29,1.87-0.62,3.7-2.29,4.62C471.21,352.19,470.47,352.37,469.74,352.37z M466.88,338.67
				c-0.65,0-1.3,0.16-1.9,0.48c-0.94,0.51-1.62,1.35-1.92,2.38c-0.3,1.02-0.19,2.1,0.32,3.04c0.5,0.92,1.34,1.6,2.35,1.91
				c0.13,0.04,0.21,0.18,0.17,0.31c-0.29,1.01-0.17,2.08,0.33,3.01c1.05,1.93,3.48,2.65,5.41,1.59c1.54-0.84,2.35-2.56,2-4.28
				c-0.02-0.12,0.04-0.24,0.15-0.28c0.15-0.06,0.29-0.12,0.43-0.2c0.94-0.51,1.62-1.35,1.92-2.38c0.3-1.02,0.19-2.1-0.33-3.04
				c-0.51-0.94-1.35-1.62-2.38-1.92c-1.02-0.3-2.1-0.19-3.04,0.32c-0.14,0.07-0.26,0.16-0.39,0.24c-0.1,0.07-0.23,0.06-0.32-0.03
				C468.94,339.07,467.92,338.67,466.88,338.67z"/>
		</g>
		<g>
			<path d="M469.95,349.32c-0.27,0-0.53-0.04-0.79-0.12c-0.72-0.21-1.31-0.69-1.67-1.35c-0.33-0.61-0.43-1.32-0.26-2
				c-0.66-0.23-1.2-0.69-1.53-1.3c-0.36-0.66-0.44-1.42-0.23-2.13c0.21-0.72,0.69-1.31,1.35-1.67c1.05-0.58,2.37-0.41,3.24,0.4
				c0.06-0.04,0.12-0.08,0.19-0.11c0.66-0.36,1.41-0.44,2.13-0.23c0.72,0.21,1.31,0.69,1.67,1.35c0.74,1.36,0.24,3.06-1.12,3.8
				c-0.07,0.04-0.14,0.07-0.21,0.1c0.19,1.17-0.37,2.33-1.43,2.9C470.87,349.2,470.41,349.32,469.95,349.32z M468.14,340.67
				c-0.42,0-0.83,0.1-1.21,0.31c-0.6,0.33-1.03,0.87-1.23,1.52c-0.19,0.65-0.12,1.34,0.21,1.94c0.32,0.59,0.85,1.02,1.5,1.22
				c0.07,0.02,0.1,0.09,0.08,0.15c-0.19,0.65-0.11,1.33,0.21,1.92c0.33,0.6,0.87,1.03,1.52,1.23c0.66,0.19,1.34,0.12,1.94-0.21
				c0.99-0.54,1.5-1.64,1.28-2.74c-0.01-0.06,0.02-0.12,0.08-0.14c0.09-0.04,0.18-0.08,0.28-0.13c0.6-0.33,1.03-0.87,1.23-1.52
				c0.19-0.65,0.12-1.34-0.21-1.94c-0.67-1.24-2.23-1.69-3.46-1.02c-0.09,0.05-0.17,0.1-0.25,0.16c-0.05,0.03-0.12,0.03-0.16-0.01
				C469.46,340.93,468.81,340.67,468.14,340.67z"/>
		</g>
		<g>
			<path d="M472.27,337.36c-1.07,0-2.11-0.53-2.72-1.5c-0.93-1.49-0.47-3.47,1.02-4.4c1.5-0.93,3.47-0.47,4.4,1.02
				c0.93,1.49,0.48,3.47-1.02,4.4h0C473.44,337.2,472.85,337.36,472.27,337.36z M472.26,331.47c-0.49,0-0.98,0.13-1.42,0.41
				c-1.26,0.79-1.64,2.45-0.86,3.71c0.79,1.26,2.46,1.64,3.71,0.86c1.26-0.79,1.65-2.45,0.86-3.71
				C474.04,331.92,473.16,331.47,472.26,331.47z M473.83,336.66L473.83,336.66L473.83,336.66z"/>
		</g>
		<g>
			<path d="M481.07,341.51c-0.24,0-0.49-0.03-0.73-0.08c-0.83-0.19-1.54-0.7-1.99-1.42c-0.45-0.72-0.59-1.58-0.4-2.41
				c0.19-0.83,0.7-1.54,1.42-1.99c0.72-0.45,1.58-0.59,2.41-0.4c0.83,0.19,1.54,0.7,1.99,1.42c0.45,0.72,0.59,1.58,0.4,2.41
				c-0.19,0.83-0.7,1.54-1.42,1.99C482.24,341.35,481.66,341.51,481.07,341.51z M481.06,335.62c-0.5,0-0.99,0.14-1.42,0.41
				c-0.61,0.38-1.04,0.98-1.2,1.68c-0.16,0.7-0.04,1.42,0.34,2.03c0.38,0.61,0.98,1.04,1.68,1.2c0.7,0.16,1.42,0.04,2.03-0.34
				c0,0,0,0,0,0c0.61-0.38,1.04-0.98,1.2-1.68c0.16-0.7,0.04-1.42-0.34-2.03s-0.98-1.04-1.68-1.2
				C481.47,335.64,481.27,335.62,481.06,335.62z"/>
		</g>
		<g>
			<path d="M481.07,339.92c-0.12,0-0.24-0.01-0.37-0.04c-0.42-0.1-0.77-0.35-1-0.71c-0.47-0.75-0.24-1.74,0.51-2.21
				c0.75-0.47,1.75-0.24,2.21,0.51c0.47,0.75,0.24,1.75-0.51,2.21C481.66,339.84,481.37,339.92,481.07,339.92z M481.07,336.96
				c-0.25,0-0.49,0.07-0.72,0.21c-0.63,0.4-0.83,1.23-0.43,1.87c0.19,0.31,0.49,0.52,0.84,0.6c0.35,0.09,0.72,0.02,1.02-0.17l0,0
				c0.31-0.19,0.52-0.49,0.6-0.84c0.08-0.35,0.02-0.72-0.17-1.02C481.96,337.19,481.52,336.96,481.07,336.96z"/>
		</g>
		<g>
			<path d="M480.27,350.17c-1.07,0-2.11-0.53-2.72-1.5c-0.93-1.49-0.47-3.47,1.02-4.4c1.5-0.93,3.47-0.47,4.4,1.02
				c0.93,1.5,0.47,3.47-1.02,4.4l0,0C481.43,350.01,480.84,350.17,480.27,350.17z M480.26,344.28c-0.49,0-0.98,0.13-1.42,0.41
				c-1.26,0.79-1.65,2.45-0.86,3.71c0.79,1.26,2.45,1.65,3.71,0.86l0,0c1.26-0.79,1.65-2.45,0.86-3.71
				C482.04,344.73,481.16,344.28,480.26,344.28z M481.82,349.47L481.82,349.47L481.82,349.47z"/>
		</g>
		<g>
			<path d="M480.27,348.83c-0.14,0-0.28-0.02-0.42-0.05c-0.48-0.11-0.89-0.4-1.15-0.82c-0.54-0.87-0.28-2.01,0.59-2.55
				c0.87-0.54,2.01-0.27,2.55,0.59c0.26,0.42,0.34,0.92,0.23,1.4c-0.11,0.48-0.4,0.89-0.82,1.15l0,0
				C480.94,348.73,480.61,348.83,480.27,348.83z M480.26,345.37c-0.29,0-0.58,0.08-0.85,0.24c-0.75,0.47-0.98,1.46-0.51,2.21
				c0.23,0.36,0.58,0.62,1,0.71c0.42,0.1,0.85,0.03,1.21-0.2l0,0c0.36-0.23,0.62-0.58,0.71-1c0.1-0.42,0.03-0.85-0.2-1.21
				C481.32,345.64,480.79,345.37,480.26,345.37z"/>
		</g>
		<g>
			<path d="M472.27,336.02c-0.62,0-1.22-0.31-1.58-0.87c-0.26-0.42-0.34-0.92-0.23-1.4c0.11-0.48,0.4-0.89,0.82-1.15
				c0.42-0.26,0.92-0.35,1.4-0.23c0.48,0.11,0.89,0.4,1.15,0.82c0.26,0.42,0.34,0.92,0.23,1.4s-0.4,0.89-0.82,1.15
				C472.95,335.92,472.61,336.02,472.27,336.02z M472.27,332.56c-0.3,0-0.59,0.08-0.85,0.24c-0.36,0.23-0.62,0.58-0.71,1
				c-0.1,0.42-0.03,0.85,0.2,1.21c0.47,0.75,1.46,0.98,2.21,0.51c0.36-0.23,0.62-0.58,0.71-1c0.1-0.42,0.03-0.85-0.2-1.21
				c-0.23-0.36-0.58-0.62-1-0.71C472.51,332.57,472.39,332.56,472.27,332.56z"/>
		</g>
		<g>
			<path d="M435.43,374.06c-0.35,0-0.7-0.19-0.88-0.52c-0.26-0.49-0.09-1.09,0.4-1.36c10.41-5.67,21.24-10.84,32.21-15.37
				c0.62-0.25,1.36-0.57,2.25-0.56c0.91,0.01,1.71,0.39,2.36,0.69l5.6,2.61c0.5,0.23,0.72,0.83,0.48,1.33
				c-0.23,0.5-0.83,0.72-1.33,0.48l-5.6-2.61c-0.52-0.24-1.06-0.49-1.54-0.5c-0.42-0.02-0.97,0.21-1.46,0.41
				c-10.9,4.5-21.67,9.63-32.02,15.27C435.76,374.03,435.6,374.06,435.43,374.06z"/>
		</g>
		<g>
			<path d="M431.2,360.32c-0.34,0-0.68-0.18-0.86-0.49c-0.28-0.48-0.12-1.09,0.36-1.37c10.3-6.05,18.57-11.86,27.82-18.73
				c0.43-0.32,0.88-0.65,1.11-1.04c0.24-0.41,0.3-1,0.36-1.57l0.65-6.15c0.06-0.55,0.53-0.96,1.1-0.89c0.55,0.06,0.95,0.55,0.89,1.1
				l-0.65,6.15c-0.07,0.71-0.17,1.59-0.63,2.37c-0.44,0.75-1.1,1.24-1.64,1.64c-9.3,6.91-17.62,12.76-28,18.85
				C431.54,360.27,431.37,360.32,431.2,360.32z"/>
		</g>
		<g>
			<path d="M429.02,355.81c-0.33,0-0.65-0.16-0.84-0.46c-0.3-0.47-0.16-1.08,0.3-1.38l11.9-7.6c0.1-0.06,0.31-0.2,0.35-0.26
				c0.03-0.05,0.06-0.24,0.08-0.37c0.23-1.5,0.76-2.89,1.52-4.1c0.3-0.47,0.91-0.6,1.38-0.31c0.47,0.29,0.61,0.91,0.31,1.38
				c-0.62,0.99-1.05,2.12-1.23,3.27c-0.06,0.37-0.12,0.79-0.36,1.18c-0.28,0.46-0.7,0.73-0.98,0.9l-11.9,7.6
				C429.39,355.76,429.21,355.81,429.02,355.81z"/>
		</g>
		<g>
			<path d="M351.1,387.4c-0.47,0-0.88-0.33-0.98-0.8c-0.11-0.54,0.24-1.07,0.78-1.18l24.96-5.02c2.14-0.43,4.56-0.92,6.39-2.21
				c1.55-1.09,2.69-2.74,3.79-4.34l6.47-9.37c0.31-0.46,0.94-0.57,1.39-0.25c0.45,0.31,0.57,0.94,0.25,1.39l-6.47,9.37
				c-1.15,1.66-2.45,3.54-4.28,4.83c-2.18,1.53-4.82,2.06-7.15,2.53l-24.96,5.02C351.23,387.39,351.16,387.4,351.1,387.4z"/>
		</g>
		<g>
			<path d="M396.18,399.59c-0.19,0-0.37-0.05-0.54-0.16l-9.58-6.16c-1.63-1.05-3.32-2.13-5.17-2.54c-2.19-0.49-4.61,0-6.75,0.42
				l-23.43,4.67c-0.54,0.11-1.07-0.24-1.18-0.79c-0.11-0.54,0.24-1.07,0.79-1.18l23.43-4.67c2.33-0.46,4.98-0.99,7.58-0.42
				c2.2,0.49,4.12,1.72,5.81,2.81l9.58,6.16c0.46,0.3,0.6,0.92,0.3,1.38C396.83,399.43,396.51,399.59,396.18,399.59z"/>
		</g>
		<g>
			<path d="M279.38,457.51c-0.1,0-0.19-0.01-0.29-0.04c-0.53-0.16-0.83-0.72-0.67-1.25c2.59-8.57,4.97-15.63,7.28-22.46
				c2.3-6.81,4.68-13.86,7.26-22.4c1.42-4.69,3.02-10.01,6.52-14.09c2.96-3.45,7.07-5.75,10.69-7.77c3.48-1.94,8.57-4.92,13.48-7.81
				c4.93-2.89,10.03-5.88,13.54-7.84c0.48-0.27,1.09-0.1,1.36,0.39c0.27,0.48,0.1,1.09-0.39,1.36c-3.48,1.95-8.58,4.93-13.5,7.82
				c-4.93,2.89-10.02,5.88-13.52,7.83c-3.65,2.04-7.42,4.14-10.15,7.32c-3.22,3.76-4.76,8.86-6.12,13.37
				c-2.59,8.57-4.97,15.63-7.28,22.46c-2.3,6.81-4.68,13.86-7.26,22.4C280.21,457.23,279.81,457.51,279.38,457.51z"/>
		</g>
		<g>
			<path d="M225.84,456.33c-0.43,0-0.83-0.28-0.96-0.71c-2.57-8.51-5.35-15.57-8.04-22.39c-2.7-6.86-5.49-13.96-8.09-22.55
				c-1.36-4.5-2.9-9.61-6.12-13.37c-2.72-3.18-6.5-5.29-10.15-7.32l-20.94-11.7c-0.48-0.27-0.65-0.88-0.39-1.36
				c0.27-0.48,0.88-0.66,1.36-0.39l20.94,11.7c3.63,2.03,7.73,4.32,10.69,7.77c3.5,4.08,5.1,9.4,6.52,14.09
				c2.57,8.51,5.35,15.57,8.04,22.39c2.7,6.86,5.49,13.96,8.09,22.55c0.16,0.53-0.14,1.09-0.67,1.25
				C226.03,456.32,225.93,456.33,225.84,456.33z"/>
		</g>
		<g>
			<path d="M412.51,395.52c-0.07,0-0.14-0.01-0.21-0.02c-0.54-0.11-0.89-0.65-0.77-1.19c4.7-22.21-9.05-34.7-9.19-34.83
				c-0.41-0.37-0.45-1-0.08-1.41c0.37-0.41,1-0.45,1.41-0.08c0.15,0.13,14.76,13.41,9.83,36.74
				C413.39,395.19,412.98,395.52,412.51,395.52z"/>
		</g>
		<g>
			<path d="M416.91,394.69c-0.07,0-0.14-0.01-0.21-0.02c-0.54-0.11-0.89-0.65-0.77-1.19c4.71-22.25-6.58-36.13-6.69-36.27
				c-0.35-0.42-0.3-1.05,0.13-1.41c0.43-0.35,1.05-0.3,1.41,0.13c0.49,0.59,12.04,14.73,7.12,37.97
				C417.78,394.37,417.37,394.69,416.91,394.69z"/>
		</g>
		<g>
			<path d="M423.19,392.62c-0.07,0-0.14-0.01-0.21-0.02c-0.54-0.11-0.89-0.65-0.77-1.19c4.72-22.3-7.51-37.3-7.64-37.45
				c-0.35-0.42-0.3-1.05,0.13-1.41c0.43-0.35,1.06-0.3,1.41,0.13c0.53,0.64,12.98,15.9,8.06,39.14
				C424.07,392.3,423.66,392.62,423.19,392.62z"/>
		</g>
		<g>
			<path d="M141.46,469.67c-22.64,0-31.99-10.13-32.38-10.57c-0.11-0.12-0.19-0.27-0.23-0.43c-0.26-1.03-1.1-2.54-1.91-4.01
				c-1.34-2.4-2.6-4.67-2.34-6.35c0.01-0.06,0.02-0.12,0.04-0.18c0.73-2.07,2.81-3.04,4.65-3.9c0.15-0.07,0.3-0.14,0.45-0.21
				c-0.02-0.01-0.03-0.02-0.05-0.03c-1.06-0.6-2.27-1.29-2.29-2.52c0-0.13,0.02-0.27,0.07-0.39c0.8-2.02,3.19-2.72,5.32-3.31
				c-0.6-0.53-1.29-1.29-0.92-2.29c0.02-0.06,0.05-0.11,0.08-0.16c0.84-1.44,2.37-1.77,3.72-1.88c-0.05-0.27-0.12-0.54-0.18-0.83
				c-0.33-1.48-0.67-3-0.2-4.21c0.07-0.19,0.2-0.35,0.36-0.46c0.98-0.68,2.52-1.57,4.57-1.35c0.55,0.06,0.95,0.55,0.89,1.1
				c-0.06,0.55-0.55,0.95-1.1,0.89c-0.97-0.11-1.89,0.14-2.92,0.8c-0.11,0.7,0.14,1.8,0.36,2.8c0.15,0.69,0.31,1.41,0.39,2.08
				c0.03,0.27-0.05,0.55-0.23,0.76c-0.18,0.21-0.43,0.34-0.71,0.35l-0.27,0.01c-1.25,0.06-2.21,0.15-2.74,0.67
				c0.13,0.13,0.31,0.28,0.45,0.4c0.44,0.38,0.94,0.8,1.21,1.38c0.12,0.26,0.13,0.56,0.02,0.82s-0.33,0.47-0.6,0.56
				c-0.48,0.16-1,0.31-1.53,0.46c-1.55,0.44-3.29,0.92-3.94,1.85c0.23,0.19,0.82,0.53,1.19,0.74c0.6,0.34,1.22,0.69,1.7,1.15
				c0.22,0.21,0.34,0.52,0.3,0.83c-0.03,0.31-0.21,0.58-0.47,0.75c-0.65,0.4-1.38,0.73-2.08,1.06c-1.58,0.74-3.08,1.44-3.57,2.65
				c-0.08,1.04,1.14,3.22,2.12,4.98c0.86,1.54,1.67,2.99,2.03,4.23c1.3,1.29,11.02,10.14,32.25,9.74c2.32-0.05,4.53-1.17,6.13-3.11
				c-0.24-0.48-0.6-0.48-1.42-0.47c-0.4,0-0.85,0-1.3-0.09c-0.46-0.09-0.79-0.49-0.8-0.96c-0.01-0.47,0.31-0.88,0.76-0.99
				c1.88-0.46,5.79-1.43,5.76-2.55c-0.06-0.43-1-0.68-2.33-0.98c-0.79-0.18-1.6-0.36-2.28-0.7c-0.38-0.19-0.6-0.59-0.55-1
				c0.05-0.42,0.35-0.76,0.75-0.86c0.96-0.24,2-0.24,3.01-0.25c1.87-0.01,3.11-0.08,3.79-0.9c-0.37-0.89-1.11-1.27-2.22-1.78
				c-1.13-0.52-2.41-1.1-2.86-2.65c-0.08-0.27-0.04-0.56,0.11-0.8c0.15-0.24,0.39-0.41,0.67-0.46c0.62-0.12,1.24-0.08,1.84-0.03
				c0.88,0.06,1.38,0.07,1.72-0.15c-0.01-0.07-0.02-0.13-0.03-0.18c-0.62-0.36-1.81-1.14-4.31-3.31c-0.42-0.36-0.46-0.99-0.1-1.41
				c0.36-0.42,0.99-0.46,1.41-0.1c2.82,2.45,3.84,3,4.17,3.19c0.46,0.25,0.72,0.5,0.78,1.13c0.01,0.13,0.03,0.34,0.14,0.75
				c0.07,0.29,0.02,0.59-0.16,0.84c-0.75,1.05-1.79,1.28-2.74,1.29c0.06,0.03,0.12,0.06,0.18,0.08c1.22,0.56,2.89,1.32,3.46,3.49
				c0.06,0.24,0.03,0.5-0.09,0.72c-0.77,1.44-2.07,1.97-3.44,2.17c0.56,0.4,0.96,0.95,1.06,1.76c0.06,1.82-1.61,2.89-3.67,3.63
				c0.32,0.35,0.59,0.83,0.78,1.5c0.08,0.3,0.02,0.62-0.16,0.86c-1.99,2.69-4.91,4.27-8.02,4.34
				C142.49,469.67,141.97,469.67,141.46,469.67z"/>
		</g>
		<g>
			<path d="M101.53,506.64c-0.38,0-0.74-0.21-0.91-0.58c-0.23-0.5-0.02-1.09,0.48-1.33l5.6-2.62c0.52-0.24,1.06-0.49,1.37-0.86
				c0.3-0.34,0.46-0.88,0.63-1.39c3.89-12.3,7.02-26.36,8.96-35.99c0.11-0.54,0.64-0.89,1.18-0.78c0.54,0.11,0.89,0.64,0.78,1.18
				c-1.95,9.68-5.09,23.81-9.01,36.2c-0.2,0.64-0.45,1.43-1.02,2.09c-0.59,0.69-1.4,1.07-2.04,1.37l-5.6,2.62
				C101.82,506.61,101.67,506.64,101.53,506.64z"/>
		</g>
		<g>
			<path d="M133.92,513.78c-0.26,0-0.52-0.1-0.72-0.3l-4.3-4.45c-0.49-0.51-1.11-1.15-1.42-2c-0.29-0.81-0.24-1.64-0.2-2.31
				c0.73-12.45,2.12-24.97,4.01-36.21c0.09-0.54,0.6-0.91,1.15-0.82c0.54,0.09,0.91,0.61,0.82,1.15
				c-1.88,11.17-3.26,23.61-3.99,35.99c-0.03,0.54-0.06,1.09,0.09,1.52c0.16,0.45,0.57,0.88,0.97,1.29l4.3,4.45
				c0.38,0.4,0.37,1.03-0.02,1.41C134.42,513.68,134.17,513.78,133.92,513.78z"/>
		</g>
		<g>
			<path d="M106.04,483.64c-0.24,0-0.49-0.09-0.68-0.27c-0.4-0.38-0.43-1.01-0.05-1.41c0.98-1.05,2.19-1.91,3.51-2.49
				c0.19-0.08,0.36-0.16,0.41-0.2c0.05-0.06,0.12-0.28,0.16-0.4c0.71-2.22,1.57-5.32,2.4-8.32c0.84-3.02,1.7-6.15,2.43-8.41
				c0.17-0.52,0.73-0.81,1.26-0.65c0.53,0.17,0.82,0.73,0.65,1.26c-0.71,2.22-1.57,5.33-2.4,8.33c-0.84,3.02-1.7,6.14-2.43,8.4
				c-0.11,0.33-0.25,0.79-0.62,1.18c-0.32,0.33-0.7,0.5-0.98,0.62c-1.13,0.5-2.11,1.19-2.91,2.05
				C106.58,483.53,106.31,483.64,106.04,483.64z"/>
		</g>
		<g>
			<path d="M152.45,441.01c-0.44,0-0.84-0.29-0.96-0.73c-0.5-1.81-1.19-4.02-1.86-6.16c-0.67-2.15-1.37-4.38-1.88-6.22
				c-0.54-1.94-1.14-4.15-0.95-6.39c0.22-2.65,1.51-5.02,2.65-7.11l10.32-18.92c0.26-0.49,0.87-0.67,1.36-0.4
				c0.48,0.26,0.66,0.87,0.4,1.36l-10.32,18.92c-1.04,1.92-2.23,4.09-2.42,6.32c-0.16,1.89,0.37,3.82,0.89,5.69
				c0.5,1.81,1.19,4.02,1.86,6.16c0.67,2.15,1.37,4.38,1.88,6.22c0.15,0.53-0.17,1.08-0.7,1.23
				C152.63,441,152.54,441.01,152.45,441.01z"/>
		</g>
		<g>
			<path d="M124.2,420.25c-0.43,0-0.82-0.27-0.95-0.7c-0.16-0.53,0.13-1.09,0.66-1.25l10.88-3.39c1.85-0.58,3.77-1.17,5.27-2.32
				c1.78-1.36,2.96-3.53,4.01-5.45c2.04-3.72,4.39-8.08,6.75-12.43c2.36-4.36,4.71-8.72,6.75-12.44c0.26-0.48,0.87-0.66,1.36-0.4
				c0.48,0.26,0.66,0.87,0.4,1.36c-2.04,3.72-4.39,8.08-6.75,12.43c-2.36,4.36-4.71,8.72-6.75,12.44c-1.14,2.09-2.44,4.45-4.55,6.07
				c-1.78,1.37-3.97,2.05-5.89,2.65l-10.88,3.39C124.4,420.23,124.3,420.25,124.2,420.25z"/>
		</g>
		<g>
			<path d="M147.72,451.22c-5.95,0-20.27-1.67-31.67-16.22c-0.34-0.43-0.26-1.06,0.17-1.4s1.06-0.26,1.4,0.17
				c13.97,17.83,32.41,15.36,32.6,15.33c0.54-0.08,1.05,0.3,1.13,0.84c0.08,0.55-0.3,1.05-0.84,1.14
				C150.47,451.08,149.45,451.22,147.72,451.22z"/>
		</g>
		<g>
			<path d="M147.53,457.83C147.53,457.83,147.53,457.83,147.53,457.83c-0.77,0-19.02-0.24-33.67-18.94
				c-0.34-0.43-0.26-1.06,0.17-1.4c0.44-0.34,1.06-0.26,1.4,0.17c14.02,17.9,31.92,18.17,32.1,18.17c0.55,0,1,0.45,1,1
				C148.53,457.38,148.08,457.83,147.53,457.83z"/>
		</g>
		<g>
			<path d="M146.58,464.01C146.58,464.01,146.58,464.01,146.58,464.01c-0.83,0-20.52-0.27-35.17-18.97
				c-0.34-0.43-0.26-1.06,0.17-1.4c0.44-0.34,1.06-0.26,1.4,0.17c14.06,17.94,33.41,18.2,33.6,18.2c0.55,0,1,0.45,1,1
				C147.58,463.56,147.13,464.01,146.58,464.01z"/>
		</g>
		<g>
			<path d="M129.39,533.14c-0.72,0-1.41-0.39-1.77-1.07c-2.35-4.46-5.53-7.22-9.44-8.19c-7.93-1.99-16.48,3.71-16.56,3.77
				c-0.91,0.62-2.16,0.38-2.78-0.54s-0.38-2.16,0.54-2.78c0.41-0.28,10.13-6.75,19.77-4.34c5.06,1.27,9.1,4.7,12,10.21
				c0.52,0.98,0.14,2.19-0.84,2.7C130.02,533.07,129.7,533.14,129.39,533.14z"/>
		</g>
		<g>
			<path d="M148.23,446.61c-12.74,0-28.16-15.73-28.83-16.42c-0.38-0.4-0.38-1.03,0.02-1.41c0.4-0.38,1.03-0.38,1.41,0.02
				c0.16,0.17,16.3,16.63,28.28,15.78c0.56-0.02,1.03,0.38,1.07,0.93c0.04,0.55-0.38,1.03-0.93,1.07
				C148.91,446.6,148.57,446.61,148.23,446.61z"/>
		</g>
		<g>
			<path d="M281.24,419.54c-0.12,0-0.24-0.02-0.36-0.07c-0.52-0.2-0.77-0.78-0.58-1.29c3.56-9.3,12.44-18.76,22.6-24.1
				c0.49-0.26,1.09-0.07,1.35,0.42c0.26,0.49,0.07,1.09-0.42,1.35c-9.76,5.12-18.27,14.17-21.67,23.04
				C282.02,419.29,281.64,419.54,281.24,419.54z"/>
		</g>
		<g>
			<path d="M225.84,420.3c-0.4,0-0.78-0.24-0.93-0.64c-3.21-8.38-11.5-16.73-22.17-22.33c-0.49-0.26-0.68-0.86-0.42-1.35
				c0.26-0.49,0.86-0.68,1.35-0.42c11.09,5.82,19.73,14.56,23.11,23.38c0.2,0.52-0.06,1.09-0.58,1.29
				C226.08,420.28,225.96,420.3,225.84,420.3z"/>
		</g>
		<g>
			<path d="M244.79,457.88c-0.02,0-0.05,0-0.08,0c-0.55-0.04-0.96-0.52-0.92-1.07c0.27-3.62-0.34-7.31-1.76-10.65
				c-0.22-0.51,0.02-1.1,0.53-1.31c0.51-0.22,1.1,0.02,1.31,0.53c1.55,3.64,2.21,7.64,1.91,11.58
				C245.74,457.48,245.31,457.88,244.79,457.88z"/>
		</g>
		<g>
			<path d="M261.23,457.88c-0.52,0-0.96-0.4-1-0.93c-0.3-3.94,0.37-7.95,1.91-11.58c0.22-0.51,0.8-0.75,1.31-0.53
				c0.51,0.22,0.75,0.8,0.53,1.31c-1.42,3.34-2.03,7.03-1.76,10.65c0.04,0.55-0.37,1.03-0.92,1.07
				C261.28,457.88,261.25,457.88,261.23,457.88z"/>
		</g>
		<g>
			<path d="M292.51,421.03c-0.38,0-0.74-0.21-0.91-0.58c-0.23-0.5-0.02-1.1,0.48-1.33c16.31-7.65,35.14-10.61,53.01-8.33
				c0.55,0.07,0.94,0.57,0.87,1.12s-0.57,0.93-1.12,0.87c-17.5-2.23-35.94,0.67-51.91,8.16C292.79,421,292.65,421.03,292.51,421.03z
				"/>
		</g>
		<g>
			<path d="M214.69,425.52c-0.14,0-0.29-0.03-0.42-0.09c-15.98-7.49-34.41-10.39-51.91-8.16c-0.54,0.06-1.05-0.32-1.12-0.87
				c-0.07-0.55,0.32-1.05,0.87-1.12c17.87-2.27,36.7,0.69,53.01,8.33c0.5,0.23,0.72,0.83,0.48,1.33
				C215.43,425.31,215.07,425.52,214.69,425.52z"/>
		</g>
		<g>
			<path d="M252.65,268.48c-1.46,0-2.65-1.19-2.65-2.65s1.19-2.65,2.65-2.65s2.65,1.19,2.65,2.65S254.11,268.48,252.65,268.48z
				 M252.65,263.67c-1.19,0-2.15,0.97-2.15,2.15s0.97,2.15,2.15,2.15s2.15-0.97,2.15-2.15S253.84,263.67,252.65,263.67z"/>
		</g>
		<g>
			<path d="M199.85,246.81c-1.46,0-2.65-1.19-2.65-2.65s1.19-2.65,2.65-2.65s2.65,1.19,2.65,2.65S201.31,246.81,199.85,246.81z
				 M199.85,242c-1.19,0-2.15,0.97-2.15,2.15s0.97,2.15,2.15,2.15c1.19,0,2.15-0.97,2.15-2.15S201.04,242,199.85,242z"/>
		</g>
		<g>
			<path d="M254.18,267.83c-0.04,0-0.07-0.02-0.1-0.05l-3.06-3.76c-0.04-0.05-0.04-0.13,0.02-0.18c0.05-0.04,0.13-0.04,0.18,0.02
				l3.06,3.76c0.04,0.05,0.04,0.13-0.02,0.18C254.23,267.82,254.21,267.83,254.18,267.83z"/>
		</g>
		<g>
			<path d="M200.84,246.5c-0.05,0-0.09-0.03-0.11-0.07l-1.98-4.43c-0.03-0.06,0-0.14,0.06-0.17c0.06-0.03,0.14,0,0.17,0.06
				l1.98,4.43c0.03,0.06,0,0.14-0.06,0.17C200.88,246.49,200.86,246.5,200.84,246.5z"/>
		</g>
		<g>
			<path d="M251.53,276.08c-44.95,0-81.53-36.57-81.53-81.52s36.57-81.53,81.53-81.53c44.95,0,81.52,36.57,81.52,81.53
				S296.48,276.08,251.53,276.08z M251.53,117.03c-42.75,0-77.53,34.78-77.53,77.53s34.78,77.52,77.53,77.52
				s77.52-34.78,77.52-77.52S294.28,117.03,251.53,117.03z"/>
		</g>
		<g>
			<path d="M251.53,259.3c-35.7,0-64.74-29.04-64.74-64.74s29.04-64.74,64.74-64.74c35.7,0,64.74,29.04,64.74,64.74
				S287.23,259.3,251.53,259.3z M251.53,133.81c-33.49,0-60.74,27.25-60.74,60.74s27.25,60.74,60.74,60.74s60.74-27.25,60.74-60.74
				S285.02,133.81,251.53,133.81z"/>
		</g>
		<g>
			<path d="M249.13,126.42c-1.46,0-2.65-1.19-2.65-2.65s1.19-2.65,2.65-2.65s2.65,1.19,2.65,2.65S250.59,126.42,249.13,126.42z
				 M249.13,121.62c-1.19,0-2.15,0.97-2.15,2.15s0.97,2.15,2.15,2.15s2.15-0.97,2.15-2.15S250.31,121.62,249.13,121.62z"/>
		</g>
		<g>
			<path d="M323.92,195.96c-1.46,0-2.65-1.19-2.65-2.65s1.19-2.65,2.65-2.65s2.65,1.19,2.65,2.65S325.38,195.96,323.92,195.96z
				 M323.92,191.15c-1.19,0-2.15,0.97-2.15,2.15c0,1.19,0.97,2.15,2.15,2.15s2.15-0.97,2.15-2.15
				C326.07,192.12,325.11,191.15,323.92,191.15z"/>
		</g>
		<g>
			<path d="M179.03,203.17c-1.46,0-2.65-1.19-2.65-2.65s1.19-2.65,2.65-2.65s2.65,1.19,2.65,2.65S180.49,203.17,179.03,203.17z
				 M179.03,198.36c-1.19,0-2.15,0.97-2.15,2.15s0.97,2.15,2.15,2.15s2.15-0.97,2.15-2.15S180.22,198.36,179.03,198.36z"/>
		</g>
		<g>
			<path d="M304.8,149.61c-1.46,0-2.65-1.19-2.65-2.65s1.19-2.65,2.65-2.65s2.65,1.19,2.65,2.65S306.26,149.61,304.8,149.61z
				 M304.8,144.81c-1.19,0-2.15,0.97-2.15,2.15s0.97,2.15,2.15,2.15s2.15-0.97,2.15-2.15S305.99,144.81,304.8,144.81z"/>
		</g>
		<g>
			<path d="M307.2,242.11c-1.46,0-2.65-1.21-2.65-2.71s1.19-2.71,2.65-2.71s2.65,1.21,2.65,2.71S308.67,242.11,307.2,242.11z
				 M307.2,237.2c-1.19,0-2.15,0.99-2.15,2.21c0,1.22,0.97,2.21,2.15,2.21s2.15-0.99,2.15-2.21
				C309.36,238.19,308.39,237.2,307.2,237.2z"/>
		</g>
		<g>
			<path d="M199.85,147.21c-1.46,0-2.65-1.19-2.65-2.65s1.19-2.65,2.65-2.65s2.65,1.19,2.65,2.65S201.31,147.21,199.85,147.21z
				 M199.85,142.4c-1.19,0-2.15,0.97-2.15,2.15s0.97,2.15,2.15,2.15c1.19,0,2.15-0.97,2.15-2.15S201.04,142.4,199.85,142.4z"/>
		</g>
		<g>
			<path d="M305.67,241.4c-0.03,0-0.06-0.01-0.08-0.03c-0.05-0.04-0.06-0.12-0.01-0.18l3.15-3.69c0.04-0.05,0.12-0.06,0.18-0.01
				c0.05,0.04,0.06,0.12,0.01,0.18l-3.15,3.69C305.74,241.39,305.7,241.4,305.67,241.4z"/>
		</g>
		<g>
			<path d="M198.24,146.57c-0.03,0-0.06-0.01-0.08-0.03c-0.05-0.04-0.06-0.12-0.01-0.18l3.15-3.69c0.05-0.05,0.12-0.06,0.18-0.01
				c0.05,0.04,0.06,0.12,0.01,0.18l-3.15,3.69C198.31,146.55,198.27,146.57,198.24,146.57z"/>
		</g>
		<g>
			<path d="M248.87,126.31c0,0-0.01,0-0.01,0c-0.07-0.01-0.12-0.07-0.11-0.14l0.5-4.82c0.01-0.07,0.07-0.12,0.14-0.11
				c0.07,0.01,0.12,0.07,0.11,0.14l-0.5,4.82C248.99,126.26,248.94,126.31,248.87,126.31z"/>
		</g>
		<g>
			<path d="M306.95,148.21c-0.02,0-0.04,0-0.06-0.01l-4.3-2.24c-0.06-0.03-0.08-0.11-0.05-0.17c0.03-0.06,0.11-0.09,0.17-0.05
				l4.3,2.24c0.06,0.03,0.08,0.11,0.05,0.17C307.04,148.18,306.99,148.21,306.95,148.21z"/>
		</g>
		<g>
			<path d="M176.61,200.78c-0.07,0-0.12-0.05-0.12-0.12c0-0.07,0.05-0.13,0.12-0.13l4.84-0.28c0.07,0,0.13,0.05,0.13,0.12
				c0,0.07-0.05,0.13-0.12,0.13L176.61,200.78C176.61,200.78,176.61,200.78,176.61,200.78z"/>
		</g>
		<g>
			<path d="M325.37,195.38c-0.04,0-0.08-0.02-0.1-0.05l-2.9-3.89c-0.04-0.06-0.03-0.13,0.03-0.17c0.06-0.04,0.13-0.03,0.18,0.03
				l2.9,3.89c0.04,0.06,0.03,0.13-0.03,0.17C325.42,195.37,325.4,195.38,325.37,195.38z"/>
		</g>
		<g>
			<path d="M391.55,283.58c-0.38,0-0.74-0.22-0.91-0.58c-0.23-0.5-0.01-1.1,0.49-1.33c6.17-2.82,10.95-6.37,14.61-10.84l1.08-1.33
				c3.27-4.03,6.64-8.2,11.45-10.4c2-0.92,5.72-2.34,8.08-1.55c0.52,0.17,0.81,0.74,0.63,1.27c-0.17,0.52-0.74,0.81-1.27,0.63
				c-1.45-0.49-4.37,0.44-6.61,1.47c-4.38,2.01-7.61,5.99-10.73,9.84l-1.09,1.34c-3.86,4.71-8.88,8.44-15.33,11.39
				C391.83,283.55,391.69,283.58,391.55,283.58z"/>
		</g>
		<g>
			<path d="M350.1,291.56c-0.01,0-0.01,0-0.02,0c-14.09-0.26-27.55-3.42-40.01-9.39c-9.65-4.62-17.51-9.98-23.39-15.92
				c-0.39-0.39-0.38-1.03,0.01-1.41c0.39-0.39,1.03-0.38,1.41,0.01c5.71,5.78,13.39,11,22.83,15.52c12.2,5.85,25.39,8.94,39.19,9.2
				c0.55,0.01,0.99,0.47,0.98,1.02C351.09,291.13,350.65,291.56,350.1,291.56z"/>
		</g>
		<g>
			<path d="M112.58,282.76c-0.15,0-0.3-0.03-0.45-0.11c-5.62-2.82-10.07-6.27-13.58-10.55l-1.09-1.34
				c-3.12-3.85-6.34-7.83-10.72-9.83c-0.47-0.22-1.21-0.54-2.07-0.84c-0.52-0.18-0.8-0.75-0.61-1.27c0.18-0.52,0.75-0.79,1.27-0.61
				c0.93,0.33,1.74,0.67,2.25,0.91c4.81,2.2,8.18,6.36,11.44,10.39l1.09,1.33c3.33,4.06,7.56,7.34,12.93,10.03
				c0.49,0.25,0.69,0.85,0.45,1.34C113.3,282.55,112.95,282.76,112.58,282.76z"/>
		</g>
		<g>
			<path d="M153.88,291.58c-0.57,0-1.14,0-1.71-0.01c-0.55-0.01-0.99-0.47-0.98-1.02c0.01-0.55,0.42-0.98,1.02-0.98
				c14.85,0.25,29.62-2.92,42.72-9.2c9.44-4.52,17.12-9.74,22.83-15.52c0.39-0.39,1.02-0.4,1.41-0.01c0.39,0.39,0.4,1.02,0.01,1.41
				c-5.87,5.94-13.74,11.3-23.39,15.92C182.91,288.34,168.45,291.58,153.88,291.58z"/>
		</g>
		<g>
			<path d="M312.05,480.2c-0.25,0-0.5-0.05-0.75-0.15c-1.02-0.41-1.52-1.58-1.1-2.6c2.04-5.04,6.34-18.8,9.8-29.86l1.53-4.88
				c0.33-1.05,1.46-1.64,2.51-1.31c1.05,0.33,1.64,1.45,1.31,2.51l-1.53,4.88c-3.66,11.71-7.81,24.98-9.91,30.17
				C313.59,479.73,312.84,480.2,312.05,480.2z"/>
		</g>
		<g>
			<path d="M256.73,461.51c-0.37,0-0.71-0.02-1.05-0.04c-1.1-0.06-1.99-1-1.93-2.1c0.06-1.1,0.97-1.95,2.06-1.89l0.08,0
				c0.67,0.04,1.21,0.06,1.72-0.06c0.67-0.16,1.34-0.27,1.91-0.35c1.37-0.21,2.74-0.43,4.11-0.65c3.35-0.55,6.84-1.15,10.37-1.8
				c9.3-1.7,16.86-3.29,23.79-4.99c3.1-0.76,7.17-1.8,11.14-3.12c7.6-2.51,27.63-9.14,34.08-18.85l8.79-52.63
				c0.18-1.09,1.21-1.82,2.3-1.64c1.09,0.18,1.83,1.21,1.64,2.3l-8.86,53.04c-0.04,0.26-0.14,0.51-0.28,0.73
				c-6.18,9.85-22.71,16.31-36.42,20.85c-4.11,1.36-8.28,2.43-11.45,3.21c-7.01,1.72-14.65,3.32-24.03,5.04
				c-3.55,0.65-7.07,1.26-10.44,1.81c-1.38,0.23-2.77,0.45-4.16,0.66c-0.51,0.08-1.06,0.17-1.59,0.29
				C257.88,461.47,257.28,461.51,256.73,461.51z"/>
		</g>
		<g>
			<path d="M254.53,461.51c-0.86,0-1.53-0.06-2.07-0.19c-0.53-0.12-1.08-0.21-1.59-0.29c-1.39-0.21-2.77-0.43-4.16-0.66
				c-3.37-0.55-6.89-1.16-10.44-1.81c-9.38-1.72-17.01-3.32-24.03-5.04c-3.17-0.78-7.34-1.85-11.45-3.21
				c-13.71-4.53-30.24-11-36.42-20.85c-0.14-0.22-0.24-0.47-0.28-0.73l-8.73-52.24c-0.18-1.09,0.55-2.12,1.64-2.3
				c1.09-0.18,2.12,0.55,2.3,1.64l8.66,51.83c6.44,9.71,26.48,16.34,34.08,18.85c3.98,1.31,8.04,2.36,11.14,3.12
				c6.94,1.7,14.5,3.29,23.79,4.99c3.53,0.65,7.02,1.25,10.36,1.8c1.37,0.22,2.74,0.44,4.11,0.65c0.57,0.09,1.24,0.2,1.9,0.35
				c0.22,0.05,0.8,0.12,2.23,0.05c1.1-0.06,2.04,0.79,2.1,1.89c0.06,1.1-0.79,2.04-1.89,2.1
				C255.34,461.5,254.91,461.51,254.53,461.51z"/>
		</g>
		<g>
			<path d="M200.51,480.2c-0.81,0-1.58-0.5-1.88-1.31l-0.61-1.65c-3.81-10.25-8.12-21.88-11.47-32.7c-0.33-1.06,0.26-2.18,1.32-2.5
				c1.06-0.33,2.18,0.27,2.5,1.32c3.31,10.72,7.61,22.28,11.39,32.49l0.61,1.65c0.38,1.04-0.14,2.19-1.18,2.57
				C200.97,480.16,200.74,480.2,200.51,480.2z"/>
		</g>
		<g>
			<path d="M253.65,488.36c-2.55,0-5.11-0.09-7.67-0.3c-4.18-0.34-8.41-0.75-12.51-1.15c-2.7-0.26-5.4-0.52-8.1-0.77
				c-8.38-0.76-16.49-3.18-25.47-6.03c-1.05-0.33-1.64-1.46-1.3-2.51c0.33-1.05,1.46-1.63,2.51-1.3c8.75,2.78,16.64,5.13,24.62,5.86
				c2.71,0.25,5.42,0.51,8.13,0.77c4.08,0.4,8.3,0.81,12.45,1.15c8.64,0.71,16.99-0.01,25.85-0.78l2.35-0.2
				c14.28-1.21,26.36-3.44,36.94-6.79c1.05-0.33,2.18,0.25,2.51,1.3c0.33,1.05-0.25,2.18-1.3,2.51
				c-10.87,3.45-23.23,5.73-37.81,6.97l-2.35,0.2C266.34,487.81,260.02,488.36,253.65,488.36z"/>
		</g>
		<g>
			<path d="M256.28,668.43L256.28,668.43c-0.78,0-1.49-0.46-1.82-1.16c-2.74-5.96-4.87-12.61-7.11-19.65
				c-2.65-8.28-5.38-16.84-9.29-24.61c-5.17-10.29-7.52-17.83-8.67-27.81c-0.46-3.98-0.31-9.28-0.15-14.9
				c0.16-5.73,0.34-11.95-0.18-16.95c-0.58,1.52-1.23,3.09-1.88,4.7c-2.38,5.84-4.84,11.87-4.76,15.68
				c0.02,0.85-0.51,1.62-1.31,1.92c-0.8,0.29-1.7,0.05-2.24-0.61c-10.1-12.36-8.58-23.34-6.87-33.96c-0.76,0.78-1.54,1.42-2.25,2
				c-2.06,1.68-3.14,2.67-3.27,4.91c-0.05,0.88-0.68,1.63-1.54,1.83c-0.86,0.21-1.76-0.19-2.19-0.96c-5.05-8.88-4.1-25.67-3.4-37.93
				c0.06-1.12,0.13-2.21,0.18-3.25c0.14-2.7-0.32-6.97-0.8-11.49c-1.21-11.27-2.58-24.04,2.82-28.79c0.83-0.73,2.09-0.65,2.82,0.18
				c0.73,0.83,0.65,2.09-0.18,2.82c-3.84,3.37-2.48,16.08-1.48,25.35c0.52,4.88,0.98,9.1,0.82,12.12c-0.05,1.04-0.12,2.13-0.18,3.26
				c-0.56,9.89-1.3,22.85,1.14,31.4c0.83-1.01,1.81-1.82,2.74-2.58c1.5-1.23,2.92-2.38,3.69-4.37c1.1-2.83,1.25-7.71,1.37-11.63
				c0.05-1.49,0.09-2.9,0.18-4.14c0.07-0.98,0.84-1.76,1.82-1.85c0.98-0.08,1.87,0.55,2.12,1.5c1.92,7.6,0.78,14.68-0.32,21.52
				c-1.48,9.18-2.89,17.91,3.09,27.55c0.94-3.72,2.65-7.92,4.33-12.04c1.68-4.13,3.27-8.04,3.96-11.09
				c0.19-0.84,0.89-1.47,1.75-1.55c0.86-0.08,1.67,0.39,2.03,1.17c2.58,5.76,2.3,15.72,2.03,25.35c-0.15,5.47-0.3,10.63,0.12,14.33
				c1.09,9.47,3.33,16.64,8.27,26.47c4.05,8.05,6.83,16.76,9.52,25.18c1.68,5.26,3.29,10.29,5.12,14.93
				c1.83-4.63,3.44-9.67,5.12-14.92c2.69-8.42,5.48-17.13,9.52-25.19c4.94-9.83,7.18-17.01,8.27-26.47
				c0.37-3.21,0.52-7.05,0.67-11.12c0.35-9.05,0.71-18.41,3.47-24.58c0.35-0.79,1.17-1.26,2.03-1.17c0.86,0.09,1.56,0.71,1.75,1.55
				c0.67,2.98,2.03,6.6,3.47,10.44c1.4,3.73,2.83,7.54,3.71,11.02c4.41-9.49,2.67-18.52,0.85-28c-1.46-7.59-2.97-15.45-0.96-23.39
				c0.24-0.95,1.11-1.58,2.12-1.5c0.98,0.09,1.75,0.87,1.82,1.85c0.22,3.09,1.72,6.55,3.17,9.91c0.52,1.2,1.01,2.34,1.44,3.46
				c0.78,2.01,1.96,3.59,3.21,5.26c0.81,1.09,1.63,2.19,2.33,3.41c2.21-8.54,1.5-21.09,0.96-30.72c-0.06-1.13-0.13-2.22-0.18-3.26
				c-0.16-3.02,0.3-7.25,0.82-12.13c1-9.27,2.37-21.97-1.47-25.34c-0.83-0.73-0.91-1.99-0.18-2.82c0.73-0.83,1.99-0.91,2.82-0.18
				c5.4,4.74,4.02,17.51,2.81,28.78c-0.49,4.52-0.95,8.79-0.81,11.5c0.05,1.04,0.12,2.12,0.18,3.25c0.7,12.26,1.65,29.05-3.4,37.93
				c-0.44,0.77-1.33,1.17-2.19,0.96c-0.86-0.2-1.49-0.95-1.54-1.83c-0.16-2.86-1.64-4.83-3.35-7.12c-1.29-1.73-2.76-3.69-3.73-6.21
				c-0.4-1.05-0.88-2.15-1.39-3.32c-0.1-0.23-0.2-0.46-0.3-0.69c0.27,3.75,1,7.56,1.76,11.48c2.2,11.41,4.47,23.2-4.29,35.9
				c-0.5,0.73-1.42,1.04-2.26,0.77c-0.84-0.27-1.4-1.06-1.39-1.94c0.08-3.93-2.14-9.85-4.3-15.58c-0.56-1.49-1.11-2.95-1.62-4.37
				c-0.9,5.07-1.14,11.23-1.36,16.87c-0.16,4.14-0.31,8.06-0.7,11.42c-1.15,9.98-3.5,17.52-8.67,27.81
				c-3.91,7.77-6.64,16.33-9.28,24.6c-2.25,7.04-4.38,13.69-7.12,19.65C257.77,667.98,257.06,668.43,256.28,668.43z"/>
		</g>
		<g>
			<path d="M380.99,368.54c-0.91,0-1.74-0.63-1.95-1.56c-0.25-1.08,0.43-2.15,1.51-2.39l18.07-4.1c1.07-0.25,2.15,0.43,2.39,1.51
				c0.25,1.08-0.43,2.15-1.51,2.39l-18.07,4.1C381.28,368.53,381.13,368.54,380.99,368.54z"/>
		</g>
		<g>
			<path d="M348.1,411.32c-0.91,0-1.74-0.63-1.95-1.56c-0.25-1.08,0.43-2.15,1.51-2.39l57.1-12.96c1.08-0.25,2.15,0.43,2.39,1.51
				c0.25,1.08-0.43,2.15-1.51,2.39l-57.1,12.96C348.4,411.31,348.25,411.32,348.1,411.32z"/>
		</g>
		<g>
			<g>
				<path d="M435.46,387.05c-1.12,0-0.69-1.28-0.59-2.08c0.17-1.26,0.03-2.92,0.96-3.76c0.33-0.3,0.88-0.51,1.27-0.73
					c1.14-0.66,2.28-1.32,3.42-1.98c3.17-1.83,6.34-3.66,9.51-5.49c7.58-4.38,15.16-8.75,22.74-13.13
					c4.84-2.79,9.68-5.59,14.52-8.38c0.17-0.1,0.34-0.21,0.52-0.3c2.99-1.73,4.02-5.57,2.29-8.56l-8.34-14.45
					c-1.73-2.99-5.57-4.02-8.56-2.29c-3.93,2.27-7.85,4.53-11.78,6.8c-7.59,4.38-15.18,8.76-22.77,13.15
					c-3.21,1.85-6.42,3.71-9.63,5.56c-1.12,0.64-2.23,1.29-3.35,1.93c-0.56,0.32-1.21,0.86-1.87,0.83c-1.4-0.05-5.32-2.88-3.13-3.97
					l49.92-28.82c2.66-1.53,5.75-1.94,8.71-1.15c2.96,0.79,5.44,2.69,6.97,5.35l8.34,14.45c3.17,5.48,1.28,12.52-4.2,15.69
					l-53.66,30.98C436.35,386.93,435.9,387.05,435.46,387.05z"/>
			</g>
		</g>
		<g>
			<path d="M150.06,446.67c-0.31,0-0.62-0.07-0.91-0.22c-0.98-0.5-1.37-1.71-0.86-2.69l14.13-27.51c0.5-0.98,1.71-1.37,2.69-0.87
				c0.98,0.5,1.37,1.71,0.86,2.69l-14.13,27.51C151.48,446.27,150.78,446.67,150.06,446.67z"/>
		</g>
		<g>
			<path d="M120.11,429.59c-0.31,0-0.62-0.07-0.91-0.22c-0.98-0.5-1.37-1.71-0.87-2.69l27.41-53.37c0.5-0.98,1.71-1.37,2.69-0.87
				c0.98,0.5,1.37,1.71,0.87,2.69l-27.41,53.37C121.54,429.2,120.84,429.59,120.11,429.59z"/>
		</g>
		<g>
			<g>
				<path d="M124.27,535.38c-0.66,0-1.32-0.06-1.99-0.17l-16.44-2.89c-3.02-0.53-5.65-2.21-7.41-4.72
					c-1.76-2.51-2.44-5.56-1.91-8.58c0,0,10.73-61.03,10.73-61.03c0.1-0.59,0.71-1.93,1.47-1.31c0.16,0.13,0.28,0.29,0.42,0.43
					c0.35,0.35,0.83,0.55,1.25,0.82c0.42,0.26,0.83,0.64,0.9,1.14c0.02,0.12,0.01,0.25,0.04,0.37c0.06,0.29,0.27,0.52,0.44,0.76
					c0.48,0.68,0.01,2.2-0.13,2.99c-0.66,3.74-1.32,7.49-1.98,11.23c-0.86,4.91-1.73,9.82-2.59,14.74
					c-0.87,4.93-1.73,9.86-2.6,14.79c-0.67,3.8-1.34,7.6-2.01,11.4c-0.27,1.52-0.54,3.05-0.8,4.57c-0.29,1.65,0.08,3.31,1.04,4.68
					c0.96,1.37,2.4,2.29,4.05,2.57l16.44,2.89c3.4,0.59,6.66-1.68,7.26-5.09c0.08-0.48,0.17-0.96,0.25-1.44
					c0.47-2.67,0.94-5.33,1.41-8c0.73-4.14,1.45-8.27,2.18-12.41c0.81-4.61,1.62-9.21,2.43-13.82c0.72-4.08,1.44-8.16,2.15-12.24
					c0.27-1.53,0.54-3.06,0.81-4.59c0.1-0.58,0.21-1.17,0.31-1.75c0.13-0.75,0.05-1.59,0.98-1.73c0.34-0.05,0.69-0.03,1.03-0.1
					c0.23-0.05,0.45-0.14,0.68-0.21c0.6-0.19,1.23-0.22,1.85-0.19c0.6,0.03,1.17-0.11,1.04,0.62l-9.98,56.77
					C134.6,531.45,129.74,535.38,124.27,535.38z"/>
			</g>
		</g>
		<g>
			<path d="M252.84,447.83c-0.83,0-1.66-0.04-2.49-0.11c-7.19-0.65-12.47-3.19-17.68-8.49c-3.9-3.97-6.53-9.06-7.43-14.34
				c-0.85-5-0.33-11.47,1.27-15.72c1.54-4.11,4.03-7.86,7.2-10.84c8.06-7.59,20.06-9.66,30.56-5.27c5.05,2.11,9.38,5.49,12.51,9.77
				c3.85,5.25,5.38,10.01,5.29,16.42c-0.12,7.88-3.66,15.53-9.72,20.98C266.9,445.13,259.9,447.83,252.84,447.83z M252.97,392.77
				c-6.59,0-13.02,2.42-17.89,7.01c-2.94,2.77-5.26,6.26-6.69,10.09c-1.48,3.96-1.96,9.99-1.17,14.68c0.83,4.88,3.28,9.6,6.89,13.28
				c4.84,4.93,9.75,7.29,16.43,7.9c7.34,0.67,14.8-1.88,20.48-6.99c5.65-5.08,8.95-12.2,9.05-19.52l0,0
				c0.09-5.94-1.33-10.34-4.9-15.21c-2.92-3.99-6.96-7.14-11.67-9.11C260.08,393.47,256.5,392.77,252.97,392.77z"/>
		</g>
		<g>
			<path d="M328.74,377.72h-66.73c-1.1,0-2-0.9-2-2s0.9-2,2-2h66.73c7.48,0,15.05-1.12,22.37-2.2c1.59-0.23,3.17-0.47,4.76-0.69
				c2.01-0.28,4.14-0.42,6.39-0.56c6.05-0.38,12.31-0.78,16.39-4.13c1.24-1.02,2.52-3.8,2.94-4.72c1.86-4.06,3.62-7.89,3.92-12.23
				c0.08-1.25,0.31-2.28,0.52-3.27c0.25-1.13,0.48-2.2,0.47-3.55c-0.01-1.83-0.01-3.04,0-4.44l0-2.58c0-1.1,0.9-2,2-2s2,0.9,2,2
				l0,2.59c0,1.39,0,2.6,0,4.41c0.01,1.78-0.29,3.18-0.56,4.41c-0.19,0.89-0.38,1.74-0.44,2.7c-0.34,5.07-2.34,9.42-4.27,13.63
				c-1.03,2.24-2.32,4.73-4.03,6.14c-5.08,4.18-12.3,4.63-18.68,5.04c-2.17,0.14-4.22,0.27-6.08,0.53
				c-1.58,0.22-3.16,0.46-4.73,0.69C344.23,376.58,336.52,377.72,328.74,377.72z"/>
		</g>
		<g>
			<path d="M348.98,340.82c-11.36,0-23.02-1.07-34.73-3.19l-2.34-0.42c-8.87-1.6-18.03-3.25-26.91-5.68
				c-5.27-1.44-9.94-3.01-14.29-4.8c-1-0.41-2.03-0.79-3.07-1.18c-2.82-1.05-5.73-2.13-8.29-3.84l-0.48-0.32
				c-1.53-1.01-3.08-2.05-4.51-3.25c-1.25,1.21-2.29,1.85-3.48,2.58c-0.48,0.29-0.99,0.61-1.58,1c-2.56,1.71-5.47,2.79-8.29,3.84
				c-1.04,0.39-2.07,0.77-3.07,1.18c-4.34,1.79-9.02,3.36-14.29,4.8c-8.88,2.43-18.05,4.08-26.91,5.68l-2.34,0.42
				c-13.43,2.43-26.79,3.48-39.71,3.12c-2.66-0.07-5.16-0.53-7.57-0.97c-2.26-0.41-4.4-0.8-6.66-0.9
				c-27.56-1.18-55.26-16.7-72.3-40.51c-0.51-0.71-0.5-1.67,0.03-2.36c0.3-0.4,0.74-0.67,1.21-0.76
				c-4.67-3.77-8.32-8.81-10.33-14.47c-0.24-0.69-0.09-1.46,0.4-2c0.49-0.54,1.24-0.78,1.95-0.61c1.66,0.39,3.4,0.43,5.08,0.15
				c-4.89-1.52-9.44-3.98-13.42-7.27c-0.59-0.49-0.85-1.28-0.66-2.03c0.19-0.75,0.79-1.32,1.54-1.47
				c10.09-2.05,17.72-4.72,24.03-8.42c3.92-2.3,11-7.15,14.35-13.77c1.77-3.5,2.18-7.9,2.58-12.16c0.19-2.01,0.38-4.08,0.71-6.05
				c0.8-4.69,1.69-9.29,2.67-13.67c9.98-44.78,26.26-73.62,49.77-88.19c3.7-2.29,7.27-4.6,10.72-6.84
				c11.57-7.5,22.51-14.57,36.35-19.68c19.34-7.13,35.59-11.27,49.67-12.68c10.98-1.1,23.01-0.13,36.78,2.95
				c5.76,1.29,11.76,2.94,18.35,5.05c21.28,6.81,38.94,17.76,57.63,29.36l2.96,1.83c23.52,14.56,39.8,43.41,49.78,88.19
				c0.98,4.39,1.88,8.99,2.67,13.67c0.33,1.97,0.53,4.04,0.71,6.05c0.4,4.26,0.81,8.66,2.58,12.16
				c3.36,6.63,10.43,11.47,14.35,13.77c6.31,3.7,13.94,6.38,24.03,8.42c0.75,0.15,1.35,0.73,1.54,1.47
				c0.19,0.75-0.07,1.54-0.66,2.03c-3.97,3.3-8.53,5.76-13.42,7.27c1.68,0.28,3.42,0.24,5.08-0.15c0.72-0.17,1.46,0.07,1.95,0.61
				c0.49,0.54,0.64,1.31,0.4,2c-2.01,5.66-5.66,10.7-10.33,14.47c0.47,0.09,0.91,0.36,1.21,0.76c0.52,0.7,0.53,1.65,0.03,2.36
				c-17.04,23.81-44.74,39.33-72.3,40.51c-2.26,0.1-4.4,0.49-6.66,0.9c-2.41,0.44-4.91,0.9-7.57,0.97
				C352.31,340.79,350.65,340.82,348.98,340.82z M250.55,293.11c0.04,0,0.07,0,0.11,0c1.1,0.06,1.95,1,1.89,2.1l-0.09,1.56
				c-0.3,5.07-0.68,11.39,1.72,15.2c1.59,2.52,4.3,4.33,6.92,6.07l0.49,0.33c2.17,1.45,4.86,2.45,7.47,3.42
				c1.08,0.4,2.16,0.8,3.2,1.23c4.19,1.73,8.71,3.25,13.82,4.64c8.71,2.38,17.79,4.02,26.57,5.6l2.34,0.42
				c13.15,2.38,26.24,3.41,38.88,3.06c2.35-0.07,4.59-0.47,6.96-0.91c2.3-0.42,4.68-0.85,7.21-0.96
				c24.71-1.06,49.56-14.2,66.03-34.65c-1.29,0.1-2.6,0.08-3.89-0.05c-0.91-0.1-1.64-0.8-1.77-1.71c-0.13-0.91,0.38-1.79,1.23-2.13
				c6.43-2.6,11.82-7.65,14.9-13.85c-3.59,0.05-7.16-1.06-10.07-3.14c-0.67-0.48-0.97-1.31-0.78-2.11c0.2-0.8,0.86-1.39,1.67-1.5
				c5-0.69,9.91-2.52,14.19-5.24c-8.43-2.01-15.15-4.56-20.89-7.93c-4.3-2.52-12.08-7.88-15.9-15.42c-2.12-4.18-2.56-8.97-3-13.6
				c-0.19-2.02-0.37-3.93-0.67-5.75c-0.78-4.62-1.67-9.15-2.63-13.47c-9.73-43.67-25.43-71.69-47.98-85.66l-2.96-1.83
				c-18.48-11.46-35.93-22.29-56.74-28.95c-6.47-2.07-12.36-3.69-18-4.96c-13.35-2.99-24.96-3.93-35.51-2.88
				c-13.74,1.37-29.67,5.45-48.69,12.45c-13.43,4.95-24.18,11.91-35.56,19.28c-3.47,2.25-7.05,4.57-10.79,6.88
				c-22.55,13.97-38.25,41.99-47.98,85.66c-0.96,4.32-1.85,8.85-2.63,13.47c-0.31,1.82-0.49,3.73-0.68,5.75
				c-0.43,4.63-0.88,9.42-3,13.59c-3.82,7.54-11.6,12.9-15.9,15.42c-5.74,3.37-12.46,5.92-20.89,7.93
				c4.28,2.73,9.19,4.56,14.19,5.24c0.81,0.11,1.47,0.71,1.67,1.5c0.2,0.8-0.11,1.63-0.78,2.11c-2.91,2.08-6.5,3.18-10.07,3.14
				c3.08,6.2,8.47,11.26,14.9,13.85c0.85,0.34,1.36,1.22,1.23,2.13c-0.13,0.91-0.86,1.61-1.77,1.71c-1.29,0.13-2.6,0.15-3.89,0.05
				c16.47,20.45,41.32,33.59,66.03,34.65c2.53,0.11,4.91,0.54,7.21,0.96c2.37,0.43,4.61,0.84,6.96,0.91
				c12.64,0.35,25.73-0.68,38.88-3.06l2.34-0.42c8.78-1.58,17.86-3.22,26.57-5.6c5.11-1.4,9.63-2.92,13.82-4.64
				c1.04-0.43,2.12-0.83,3.2-1.23c2.6-0.97,5.3-1.97,7.47-3.42c0.64-0.42,1.19-0.76,1.71-1.08c1.09-0.67,1.86-1.14,2.79-2.04
				c-0.28-0.37-0.55-0.75-0.8-1.15c-3.08-4.9-2.66-11.92-2.32-17.57l0.09-1.54C248.61,293.93,249.49,293.11,250.55,293.11z"/>
		</g>
		<g>
			<path d="M171.9,377.73c-3.2,0-6.51-0.32-9.71-0.64c-1.01-0.1-2.01-0.2-2.99-0.28c-5.61-0.49-10.68-1.86-16.05-3.32l-0.77-0.21
				c-1.29-0.35-2.59-0.62-3.96-0.9c-1.4-0.29-2.85-0.58-4.28-0.98c-5.59-1.53-9.08-4.15-11.65-8.76c-2.2-3.95-3.58-8.64-3.89-13.2
				c-0.06-0.96-0.25-1.8-0.44-2.7c-0.27-1.23-0.57-2.63-0.56-4.41c0.01-1.88,0.01-3.75,0-5.63l0-2.82c0-1.1,0.9-2,2-2s2,0.9,2,2
				l0,2.82c0,1.88,0.01,3.77,0,5.66c-0.01,1.34,0.23,2.41,0.47,3.55c0.21,0.99,0.44,2.02,0.52,3.27c0.27,3.98,1.48,8.08,3.39,11.52
				c2.02,3.63,4.69,5.62,9.2,6.85c1.31,0.36,2.64,0.63,4.04,0.92c1.37,0.28,2.79,0.57,4.2,0.95l0.77,0.21
				c5.19,1.41,10.1,2.73,15.35,3.19c1,0.09,2.01,0.19,3.03,0.29c3.24,0.32,6.61,0.64,9.71,0.62c1.74-0.02,3.49-0.01,5.23-0.01
				l1.84,0h82.66c1.1,0,2,0.9,2,2s-0.9,2-2,2l-84.5,0c-1.73,0-3.46,0-5.19,0.01C172.19,377.73,172.04,377.73,171.9,377.73z"/>
		</g>
		<g>
			<path d="M119.6,160.59c-0.08,0-0.17,0-0.25-0.02c-1.1-0.14-1.87-1.14-1.74-2.23l13.94-111.53c0.14-1.1,1.14-1.87,2.23-1.74
				c1.1,0.14,1.87,1.14,1.74,2.23l-13.94,111.53C121.46,159.85,120.6,160.59,119.6,160.59z"/>
		</g>
		<g>
			<path d="M373.04,139.82c-0.07,0-0.14,0-0.21-0.01c-1.1-0.11-1.9-1.1-1.79-2.19l3.93-38.35c0.03-0.28,0.12-0.56,0.26-0.8
				c1.09-1.87,2.18-3.75,3.26-5.64c5.11-8.83,10.38-17.96,16.17-26.59l-79.59,35.72c-1.01,0.45-2.19,0-2.64-1.01
				c-0.45-1.01,0-2.19,1-2.64l85.08-38.18c0.71-0.32,1.55-0.2,2.14,0.32c0.59,0.52,0.82,1.33,0.6,2.08c-0.6,2-1.77,3.73-2.8,5.26
				c-5.9,8.72-11.29,18.04-16.49,27.05c-1.02,1.76-2.04,3.52-3.05,5.27l-3.89,37.92C374.92,139.05,374.05,139.82,373.04,139.82z"/>
		</g>
		<g>
			<path d="M400.51,187.58c-1.1,0-1.99-0.88-2-1.98l-1.16-123.63c-0.01-1.1,0.88-2.01,1.98-2.02c0.01,0,0.01,0,0.02,0
				c1.1,0,1.99,0.88,2,1.98l1.16,123.63c0.01,1.1-0.88,2.01-1.98,2.02C400.52,187.58,400.52,187.58,400.51,187.58z"/>
		</g>
		<g>
			<path d="M323.91,107.39c-1,0-1.87-0.76-1.98-1.78c-0.12-1.1,0.67-2.09,1.77-2.21l53.05-5.92c1.09-0.12,2.09,0.67,2.21,1.77
				s-0.67,2.09-1.77,2.21l-53.05,5.92C324.06,107.39,323.99,107.39,323.91,107.39z"/>
		</g>
		<g>
			<path d="M159.52,121.98c-1.01,0-1.88-0.77-1.99-1.8l-3.59-34.97c-1.02-1.75-2.04-3.51-3.06-5.28
				c-5.21-9.01-10.59-18.32-16.48-27.03c-1.05-1.55-2.22-3.28-2.81-5.27c-0.24-0.79,0.04-1.64,0.69-2.15
				c0.65-0.51,1.54-0.56,2.25-0.14l80.03,47.61c0.95,0.56,1.26,1.79,0.7,2.74c-0.56,0.95-1.79,1.26-2.74,0.7l-73.44-43.69
				c5.44,8.23,10.43,16.86,15.27,25.23c1.09,1.89,2.18,3.77,3.27,5.64c0.14,0.25,0.23,0.52,0.26,0.8l3.63,35.4
				c0.11,1.1-0.69,2.08-1.79,2.19C159.65,121.98,159.59,121.98,159.52,121.98z"/>
		</g>
		<g>
			<path d="M213.54,96.67c-0.11,0-0.23-0.01-0.35-0.03l-57.65-10.09c-1.09-0.19-1.82-1.23-1.63-2.31c0.19-1.09,1.23-1.81,2.31-1.63
				l57.65,10.09c1.09,0.19,1.82,1.23,1.63,2.31C215.34,95.99,214.5,96.67,213.54,96.67z"/>
		</g>
		<g>
			<rect x="102.83" y="493.94" class="st23" width="8.61" height="78.41"/>
			<path d="M111.94,572.85h-9.61v-79.41h9.61V572.85z M103.33,571.85h7.61v-77.41h-7.61V571.85z"/>
		</g>
		<g>
			<path d="M257.39,71.13c-0.02,0-0.05,0-0.07,0c-1.1-0.04-1.97-0.97-1.93-2.07l1.82-50.87c0.04-1.1,0.98-1.97,2.07-1.93
				c1.1,0.04,1.97,0.97,1.93,2.07l-1.82,50.87C259.35,70.28,258.46,71.13,257.39,71.13z"/>
		</g>
		<g>
			<path d="M133.51,308.81c-12.29,0-22.29-10-22.29-22.29c0-12.29,10-22.29,22.29-22.29c12.29,0,22.29,10,22.29,22.29
				C155.8,298.81,145.8,308.81,133.51,308.81z M133.51,268.23c-10.08,0-18.29,8.2-18.29,18.29c0,10.08,8.2,18.29,18.29,18.29
				c10.08,0,18.29-8.2,18.29-18.29C151.8,276.44,143.59,268.23,133.51,268.23z"/>
		</g>
		<g>
			<path d="M133.51,300.97c-7.97,0-14.45-6.48-14.45-14.45c0-7.97,6.48-14.45,14.45-14.45s14.45,6.48,14.45,14.45
				C147.96,294.49,141.48,300.97,133.51,300.97z M133.51,272.32c-7.83,0-14.2,6.37-14.2,14.2s6.37,14.2,14.2,14.2
				s14.2-6.37,14.2-14.2S141.34,272.32,133.51,272.32z"/>
		</g>
		<g>
			<path d="M369.99,308.81c-12.29,0-22.29-10-22.29-22.29c0-12.29,10-22.29,22.29-22.29s22.29,10,22.29,22.29
				C392.28,298.81,382.28,308.81,369.99,308.81z M369.99,268.23c-10.08,0-18.29,8.2-18.29,18.29c0,10.08,8.2,18.29,18.29,18.29
				s18.29-8.2,18.29-18.29C388.28,276.44,380.07,268.23,369.99,268.23z"/>
		</g>
		<g>
			<path d="M369.99,300.97c-7.97,0-14.45-6.48-14.45-14.45c0-7.97,6.48-14.45,14.45-14.45s14.45,6.48,14.45,14.45
				C384.44,294.49,377.96,300.97,369.99,300.97z M369.99,272.32c-7.83,0-14.2,6.37-14.2,14.2s6.37,14.2,14.2,14.2
				s14.2-6.37,14.2-14.2S377.82,272.32,369.99,272.32z"/>
		</g>
		<g>
			<path d="M249.71,295.39c-1.96,0-3.87-0.65-5.43-1.94c-1.27-1.05-2.1-2.61-2.54-4.77c-0.16-0.78-0.28-1.71-0.01-2.69
				c0.38-1.37,1.46-2.51,2.95-3.12c1.1-0.45,2.19-0.54,3.15-0.61l6.14-0.5c0.77-0.06,2.58-0.21,3.82,1.08
				c0.53,0.55,0.86,1.26,1,2.12c0.59,3.74-1.12,7.26-4.48,9.18C252.85,294.97,251.27,295.39,249.71,295.39z M254.81,285.71
				c-0.12,0-0.29,0.01-0.51,0.03l-6.14,0.5c-0.74,0.06-1.44,0.12-1.97,0.33c-0.36,0.15-0.57,0.37-0.6,0.48
				c-0.04,0.13-0.01,0.4,0.08,0.83c0.25,1.22,0.64,2.05,1.17,2.49c1.82,1.5,4.1,1.1,5.5,0.3c1.45-0.83,2.86-2.56,2.54-4.95
				C254.85,285.71,254.83,285.71,254.81,285.71z"/>
		</g>
		<g>
			<path d="M213.11,377.72c-0.62,0-1.24-0.29-1.63-0.84c-3.51-4.92-5.34-10.55-7.11-16l-0.17-0.51c-0.86-2.64-1.75-5.37-2.3-8.2
				c-1.28-6.54-0.93-12.22-0.39-18.45c0.1-1.1,1.06-1.92,2.17-1.82c1.1,0.1,1.91,1.07,1.82,2.17c-0.54,6.13-0.85,11.3,0.33,17.33
				c0.51,2.59,1.36,5.2,2.18,7.73l0.17,0.52c1.76,5.4,3.41,10.49,6.57,14.92c0.64,0.9,0.43,2.15-0.47,2.79
				C213.92,377.6,213.52,377.72,213.11,377.72z"/>
		</g>
		<g>
			<path d="M295.84,377.72c-0.4,0-0.81-0.12-1.16-0.37c-0.9-0.64-1.11-1.89-0.47-2.79c3.15-4.42,4.81-9.51,6.57-14.91l0.17-0.52
				c0.82-2.53,1.67-5.14,2.18-7.73c1.18-6.04,0.87-11.16,0.34-17.23c-0.1-1.1,0.72-2.07,1.82-2.17c1.1-0.11,2.07,0.72,2.17,1.82
				c0.56,6.39,0.88,11.79-0.39,18.35c-0.55,2.83-1.44,5.56-2.3,8.2l-0.17,0.52c-1.77,5.44-3.6,11.07-7.11,15.99
				C297.08,377.43,296.47,377.72,295.84,377.72z"/>
		</g>
		<g>
			<path d="M287.4,94.5c-1.1,0-2-0.9-2-2c0-11.58-12.83-21.37-28.01-21.37c-15.7,0-28,8.73-28,19.87c0,1.1-0.9,2-2,2s-2-0.9-2-2
				c0-13.39,14.06-23.87,32-23.87c17.35,0,32.01,11.62,32.01,25.37C289.4,93.6,288.5,94.5,287.4,94.5z"/>
		</g>
		<g>
			<circle cx="259.21" cy="9.13" r="9.13"/>
		</g>
		<g>
			<path class="st24" d="M253.36,439c-9.84,0-18.24-7.02-19.97-16.7l0.74-0.13c1.66,9.32,9.75,16.08,19.23,16.08
				s17.57-6.76,19.23-16.08l0.74,0.13C271.6,431.98,263.2,439,253.36,439z"/>
		</g>
		<g>
			<path class="st24" d="M272.43,414.51c-1.95-8.88-9.97-15.32-19.08-15.32c-9.1,0-17.12,6.44-19.08,15.32l-0.73-0.16
				c2.03-9.22,10.36-15.91,19.81-15.91c9.45,0,17.78,6.69,19.81,15.91L272.43,414.51z"/>
		</g>
		<g>
			<path class="st24" d="M253.36,432.98c-6.39,0-12-4.25-13.73-10.37c-1.75,0-10.96,0-10.96,0h-0.38v-8.56h11.58
				c1.99-5.75,7.37-9.59,13.48-9.59c6.11,0,11.49,3.84,13.48,9.59l11.45,0v8.56h-11.2C265.35,428.73,259.75,432.98,253.36,432.98z
				 M240.29,422.19c1.56,5.92,6.93,10.05,13.06,10.05c6.15,0,11.53-4.15,13.08-10.09l0.07-0.28h11.03v-7.06l-11.24,0l-0.08-0.26
				c-1.81-5.58-6.98-9.34-12.85-9.34c-5.87,0-11.04,3.75-12.85,9.33l-0.08,0.26h-11.37v7.06h5.25
				C240.01,421.86,240.28,421.86,240.29,422.19z"/>
		</g>
		<g>
			<path class="st25" d="M400.1,280.49c0.04,45.47,41.02,82.32,91.57,82.32s91.53-36.85,91.57-82.32H400.1z"/>
			<path d="M491.68,363.54c-50.86,0-92.26-37.26-92.3-83.05v-0.73h184.61v0.73C583.94,326.28,542.53,363.54,491.68,363.54z
				 M400.84,281.22c0.48,44.65,41.06,80.85,90.83,80.85s90.35-36.2,90.83-80.85H400.84z"/>
		</g>
		<g>
			<ellipse class="st26" cx="491.68" cy="281.79" rx="91.57" ry="26.33"/>
			<path d="M491.68,308.85c-51.76,0-92.31-11.89-92.31-27.06s40.55-27.06,92.31-27.06c51.76,0,92.3,11.89,92.3,27.06
				S543.44,308.85,491.68,308.85z M491.68,256.2c-50.09,0-90.84,11.48-90.84,25.59c0,14.11,40.75,25.59,90.84,25.59
				s90.84-11.48,90.84-25.59C582.51,267.68,541.76,256.2,491.68,256.2z"/>
		</g>
		<path class="st27" d="M491.68,305.49c33.95,0,63.56-5.31,79.37-13.2c-3.67-11.68-37.79-20.83-79.37-20.83
			c-41.58,0-75.7,9.15-79.37,20.83C428.12,300.17,457.73,305.49,491.68,305.49z"/>
		<g>
			<g>
				<ellipse class="st28" cx="515.58" cy="286.05" rx="19.92" ry="6.81"/>
				<path class="st29" d="M515.58,293.23c-11.38,0-20.29-3.15-20.29-7.18s8.91-7.18,20.29-7.18s20.29,3.15,20.29,7.18
					S526.95,293.23,515.58,293.23z M515.58,279.61c-10.6,0-19.55,2.95-19.55,6.45s8.95,6.44,19.55,6.44s19.55-2.95,19.55-6.44
					S526.18,279.61,515.58,279.61z"/>
			</g>
			<path class="st30" d="M503.03,286.05c0-2.4,5.44-4.36,12.33-4.54c-0.33-0.01-0.65-0.02-0.99-0.02c-7.35,0-13.32,2.04-13.32,4.55
				c0,2.51,5.96,4.55,13.32,4.55c0.33,0,0.66-0.01,0.99-0.02C508.47,290.42,503.03,288.46,503.03,286.05z"/>
			<path class="st30" d="M515.36,287.64c-3.24,0-5.9-0.82-6.33-1.89c-0.04,0.1-0.07,0.2-0.07,0.3c0,1.21,2.86,2.19,6.4,2.19
				c3.53,0,6.4-0.98,6.4-2.19c0-0.1-0.03-0.2-0.07-0.3C521.26,286.82,518.6,287.64,515.36,287.64z"/>
			<path class="st30" d="M511.22,285.45c0-0.85,2.02-1.54,4.51-1.54c1.29,0,2.44,0.19,3.26,0.48c-0.74-0.5-2.25-0.85-4.02-0.85
				c-2.49,0-4.51,0.69-4.51,1.54c0,0.41,0.48,0.79,1.25,1.06C511.41,285.94,511.22,285.7,511.22,285.45z"/>
			<path class="st30" d="M518.65,282.56c-0.52,0-1.03,0.02-1.54,0.04c4.91,0.25,8.67,1.7,8.67,3.45c0,1.75-3.77,3.19-8.67,3.45
				c0.5,0.03,1.01,0.04,1.54,0.04c5.64,0,10.21-1.56,10.21-3.49C528.86,284.13,524.29,282.56,518.65,282.56z"/>
		</g>
		<g>
			<g>
				<ellipse class="st28" cx="532.58" cy="289.55" rx="19.92" ry="6.81"/>
				<path class="st29" d="M532.58,296.73c-11.38,0-20.29-3.15-20.29-7.18s8.91-7.18,20.29-7.18s20.29,3.15,20.29,7.18
					S543.96,296.73,532.58,296.73z M532.58,283.1c-10.6,0-19.55,2.95-19.55,6.44c0,3.49,8.95,6.45,19.55,6.45s19.55-2.95,19.55-6.45
					C552.14,286.05,543.18,283.1,532.58,283.1z"/>
			</g>
			<path class="st30" d="M520.04,289.55c0-2.4,5.44-4.36,12.33-4.54c-0.33-0.01-0.65-0.02-0.99-0.02c-7.35,0-13.32,2.04-13.32,4.55
				s5.96,4.55,13.32,4.55c0.33,0,0.66-0.01,0.99-0.02C525.47,293.91,520.04,291.95,520.04,289.55z"/>
			<path class="st30" d="M532.36,291.13c-3.24,0-5.9-0.82-6.33-1.89c-0.04,0.1-0.07,0.2-0.07,0.3c0,1.21,2.86,2.19,6.4,2.19
				s6.4-0.98,6.4-2.19c0-0.1-0.03-0.2-0.07-0.3C538.27,290.31,535.6,291.13,532.36,291.13z"/>
			<path class="st30" d="M528.23,288.95c0-0.85,2.02-1.54,4.51-1.54c1.29,0,2.44,0.19,3.26,0.48c-0.74-0.5-2.25-0.85-4.02-0.85
				c-2.49,0-4.51,0.69-4.51,1.54c0,0.41,0.48,0.79,1.25,1.06C528.42,289.43,528.23,289.2,528.23,288.95z"/>
			<path class="st30" d="M535.66,286.05c-0.52,0-1.03,0.02-1.54,0.04c4.91,0.25,8.67,1.7,8.67,3.45c0,1.75-3.77,3.19-8.67,3.45
				c0.5,0.03,1.01,0.04,1.54,0.04c5.64,0,10.21-1.56,10.21-3.49C545.87,287.62,541.3,286.05,535.66,286.05z"/>
		</g>
		<g>
			<g>
				<path class="st31" d="M457.55,293.6c1.15-1.62,1.84-3.45,1.9-5.41h-31.24c0.07,1.96,0.75,3.8,1.9,5.41H457.55z"/>
				<path d="M457.74,293.97h-27.81l-0.11-0.15c-1.24-1.74-1.9-3.63-1.97-5.61l-0.01-0.38h32l-0.01,0.38
					c-0.07,1.98-0.73,3.87-1.97,5.61L457.74,293.97z M430.31,293.23h27.05c1.01-1.47,1.58-3.04,1.7-4.68H428.6
					C428.73,290.19,429.3,291.76,430.31,293.23z"/>
			</g>
			<g>
				<ellipse class="st32" cx="443.83" cy="287.87" rx="15.63" ry="4.92"/>
				<path d="M443.83,293.15c-7.86,0-16-1.98-16-5.28c0-3.31,8.13-5.28,16-5.28c7.86,0,16,1.98,16,5.28
					C459.83,291.17,451.7,293.15,443.83,293.15z M443.83,283.32c-9.13,0-15.26,2.35-15.26,4.55c0,2.2,6.13,4.55,15.26,4.55
					c9.13,0,15.26-2.35,15.26-4.55C459.1,285.67,452.96,283.32,443.83,283.32z"/>
			</g>
			<ellipse class="st33" cx="441.63" cy="287.87" rx="8.25" ry="2.6"/>
			<ellipse class="st34" cx="440.59" cy="287.8" rx="4.26" ry="1.34"/>
		</g>
		<g>
			<polygon class="st35" points="475.41,293.28 454.15,299.05 453.17,297.11 474.42,291.34 			"/>
			<polygon class="st35" points="456.94,292.05 477.72,298.67 476.59,300.57 455.8,293.95 			"/>
			<polygon class="st35" points="464.37,289.85 483.71,299.93 482.27,301.61 462.92,291.53 			"/>
			<polygon class="st35" points="480.14,299.4 457.5,300.35 457.34,298.28 479.97,297.33 			"/>
			<polygon class="st35" points="491.54,302.17 468.9,303.12 468.74,301.05 491.37,300.1 			"/>
		</g>
		<path class="st36" d="M0,113.03"/>
		<path class="st10" d="M568.02,320.81c2.22-4.06-5.54,9.69-12.12,15.88c-6.57,6.18-7.41,6.84-12.66,9.82
			c-5.25,2.98,1.02-3.7,1.02-3.7s4.55-2.07,7.14-4.23c2.59-2.17,8.93-8.39,9.97-10.54C562.41,325.89,568.02,320.81,568.02,320.81z"
			/>
		<path class="st10" d="M516.18,301.3c2.26-0.75-5.49,1.69-10.25,1.6c-4.76-0.1-5.33-0.16-8.48-1.01s1.64-1.07,1.64-1.07
			s2.57,0.94,4.35,1.09c1.79,0.14,6.46,0.14,7.6-0.31C512.19,301.15,516.18,301.3,516.18,301.3z"/>
		<path class="st10" d="M505.36,295.8c2.26-0.75-5.49,1.69-10.25,1.6c-4.76-0.1-5.33-0.16-8.48-1.01s1.64-1.07,1.64-1.07
			s2.57,0.94,4.35,1.09c1.79,0.14,6.46,0.14,7.6-0.31S505.36,295.8,505.36,295.8z"/>
		<path class="st10" d="M520.17,298.28c2.26-0.75-5.49,1.69-10.25,1.6c-4.76-0.1-5.33-0.16-8.48-1.01
			c-3.16-0.85,1.64-1.07,1.64-1.07s2.57,0.94,4.35,1.09c1.79,0.14,6.46,0.14,7.6-0.31S520.17,298.28,520.17,298.28z"/>
		<rect x="458.17" y="279.29" class="st37" width="2.21" height="2.21"/>
		<rect x="460.71" y="282.61" class="st37" width="2.21" height="2.21"/>
		<rect x="466.6" y="284.5" class="st37" width="2.21" height="2.21"/>
		<rect x="462.92" y="285.35" class="st37" width="2.21" height="2.21"/>
		<rect x="454.7" y="281.5" class="st37" width="2.21" height="2.21"/>
		<g>
			
				<rect x="114.88" y="493.94" transform="matrix(0.9653 0.2613 -0.2613 0.9653 143.4346 -12.6205)" class="st23" width="8.61" height="78.41"/>
			<path d="M113.45,572.73l-9.28-2.51l20.75-76.65l9.28,2.51L113.45,572.73z M105.4,569.51l7.35,1.99l20.22-74.72l-7.35-1.99
				L105.4,569.51z"/>
		</g>
		<g>
			<g>
				<g>
					<polygon class="st10" points="111.33,134.48 123.49,168.37 142.14,159.44 129.97,125.56 					"/>
					<path d="M122.92,169.75l-12.85-35.78l20.46-9.79l12.85,35.78L122.92,169.75z M112.57,134.99l11.49,31.99l16.83-8.06
						l-11.49-31.99L112.57,134.99z"/>
				</g>
				<g>
					<polygon class="st10" points="133.77,134.48 145.93,168.37 164.58,159.44 152.42,125.56 					"/>
					<path d="M145.37,169.75l-12.84-35.78l20.46-9.79l12.85,35.78L145.37,169.75z M135.02,134.99l11.49,31.99l16.83-8.06
						l-11.49-31.99L135.02,134.99z"/>
				</g>
				<g>
					<polygon class="st10" points="156.21,134.48 168.38,168.37 187.02,159.44 174.86,125.56 					"/>
					<path d="M167.81,169.75l-12.85-35.78l20.46-9.79l12.84,35.78L167.81,169.75z M157.46,134.99l11.49,31.99l16.83-8.06
						l-11.49-31.99L157.46,134.99z"/>
				</g>
				<g>
					<polygon class="st10" points="178.66,134.48 190.82,168.37 209.47,159.44 197.3,125.56 					"/>
					<path d="M190.25,169.75l-12.84-35.78l20.46-9.79l12.85,35.78L190.25,169.75z M179.9,134.99l11.49,31.99l16.83-8.06
						l-11.49-31.99L179.9,134.99z"/>
				</g>
				<g>
					<polygon class="st10" points="201.1,134.48 213.27,168.37 231.91,159.44 219.75,125.56 					"/>
					<path d="M212.7,169.75l-12.85-35.78l20.46-9.79l12.84,35.78L212.7,169.75z M202.35,134.99l11.49,31.99l16.83-8.06l-11.49-31.99
						L202.35,134.99z"/>
				</g>
				<g>
					<polygon class="st10" points="223.54,134.48 235.71,168.37 254.36,159.44 242.19,125.56 					"/>
					<path d="M235.14,169.75l-12.84-35.78l20.46-9.79l12.85,35.78L235.14,169.75z M224.79,134.99l11.49,31.99l16.83-8.06
						l-11.49-31.99L224.79,134.99z"/>
				</g>
				<g>
					<polygon class="st10" points="245.99,134.48 258.15,168.37 276.8,159.44 264.63,125.56 					"/>
					<path d="M257.59,169.75l-12.85-35.78l20.46-9.79l12.84,35.78L257.59,169.75z M247.23,134.99l11.49,31.99l16.83-8.06
						l-11.49-31.99L247.23,134.99z"/>
				</g>
				<g>
					<polygon class="st10" points="268.43,134.48 280.6,168.37 299.24,159.44 287.08,125.56 					"/>
					<path d="M280.03,169.75l-12.84-35.78l20.46-9.79l12.84,35.78L280.03,169.75z M269.68,134.99l11.49,31.99l16.83-8.06
						l-11.49-31.99L269.68,134.99z"/>
				</g>
				<g>
					<polygon class="st10" points="290.87,134.48 303.04,168.37 321.69,159.44 309.52,125.56 					"/>
					<path d="M302.47,169.75l-12.84-35.78l20.46-9.79l12.84,35.78L302.47,169.75z M292.12,134.99l11.49,31.99l16.83-8.06
						l-11.49-31.99L292.12,134.99z"/>
				</g>
				<g>
					<polygon class="st10" points="313.32,134.48 325.48,168.37 344.13,159.44 331.96,125.56 					"/>
					<path d="M324.92,169.75l-12.84-35.78l20.46-9.79l12.84,35.78L324.92,169.75z M314.56,134.99l11.49,31.99l16.83-8.06
						l-11.49-31.99L314.56,134.99z"/>
				</g>
				<g>
					<polygon class="st10" points="335.76,134.48 347.93,168.37 366.57,159.44 354.41,125.56 					"/>
					<path d="M347.36,169.75l-12.84-35.78l20.46-9.79l12.84,35.78L347.36,169.75z M337.01,134.99l11.49,31.99l16.83-8.06
						l-11.49-31.99L337.01,134.99z"/>
				</g>
				<g>
					<polygon class="st10" points="358.2,134.48 370.37,168.37 389.02,159.44 376.85,125.56 					"/>
					<path d="M369.8,169.75l-12.84-35.78l20.46-9.79l12.84,35.78L369.8,169.75z M359.45,134.99l11.49,31.99l16.83-8.06l-11.49-31.99
						L359.45,134.99z"/>
				</g>
			</g>
			<g>
				
					<rect x="383.14" y="118.8" transform="matrix(0.7807 -0.6248 0.6248 0.7807 7.7018 282.2068)" class="st10" width="45.68" height="22.65"/>
				<path d="M395.07,154.65l-15.4-19.24l37.22-29.79l15.4,19.24L395.07,154.65z M382.48,135.71l12.9,16.12l34.1-27.29l-12.9-16.12
					L382.48,135.71z"/>
			</g>
			<g>
				
					<rect x="379.28" y="140.41" transform="matrix(0.9442 0.3294 -0.3294 0.9442 72.0449 -124.0533)" class="st10" width="45.68" height="20.36"/>
				<path d="M420.94,168.99l-45.02-15.7l7.36-21.11l45.02,15.71L420.94,168.99z M378.47,152.06l41.24,14.39l6.05-17.33l-41.24-14.39
					L378.47,152.06z"/>
			</g>
		</g>
	</g>
</g>
</svg>
